<svg width="24" height="24" viewBox="0 0 24 24" fill="none" xmlns="http://www.w3.org/2000/svg">
<path d="M13.3932 5.76246C9.75878 4.43816 4.44062 2.01723 4.44062 2.01723C4.06278 1.91877 4.00985 2.28431 4.00985 2.28431C3.88924 3.75262 4.81724 6.14277 5.29847 6.67816C5.77724 7.21477 12.9686 9.4117 12.9686 9.4117C12.9686 9.4117 7.43878 8.29539 6.10462 7.91139C4.76801 7.52616 5.19385 8.33846 5.19385 8.33846C5.46832 9.82154 6.75447 11.5065 7.77109 11.6652C8.78524 11.824 13.0622 11.7612 13.0622 11.7612C13.0622 11.7612 12.2092 11.8597 10.8222 12.0468C9.7957 12.1858 8.48985 12.3471 8.15139 12.4751C7.35632 12.7754 8.72862 13.9803 8.72862 13.9803C10.7643 15.8265 11.8462 15.1938 11.8462 15.1938C12.6462 14.9366 13.3219 14.7495 13.8942 14.6117L13.1852 17.5545H15.2185L14.0985 21.9988L19.0339 15.4622H16.4492L16.9859 14.5317C16.9932 14.544 16.9957 14.5514 16.9957 14.5514C16.9957 14.5514 18.8295 11.616 19.5323 10.1182L19.5471 10.0935H19.5446C19.6652 9.83385 19.7514 9.61969 19.7846 9.47323C20.1908 7.76246 17.0302 7.08677 13.3932 5.76246Z" fill="black"/>
</svg>
