<svg width="24" height="24" viewBox="0 0 24 24" fill="none" xmlns="http://www.w3.org/2000/svg">
<path d="M22 12.0005C22 17.5252 17.5159 22.001 11.984 22.001C7.39561 22.001 3.53187 18.9249 2.34684 14.7267L6.18581 16.3112C6.44387 17.6057 7.59277 18.5853 8.96361 18.5853C10.544 18.5853 11.8632 17.2785 11.7941 15.6217L15.2015 13.1938C17.3022 13.2465 19.0643 11.5443 19.0643 9.424C19.0643 7.34297 17.3703 5.65419 15.2862 5.65419C13.2021 5.65419 11.5081 7.34813 11.5081 9.424V9.47252L9.12155 12.9285C8.49703 12.8924 7.88387 13.0658 7.36774 13.4168L2 11.1974C2.41084 6.04852 6.72155 2 11.984 2C17.5159 2 22 6.47587 22 12.0005ZM8.27819 17.1732L7.04877 16.6653C7.27484 17.135 7.66503 17.5045 8.14503 17.7058C9.22994 18.1579 10.4759 17.6418 10.927 16.561C11.1448 16.0366 11.1489 15.4606 10.9311 14.9363C10.7133 14.4119 10.3066 14.001 9.78219 13.7832C9.26194 13.5654 8.70555 13.5737 8.21316 13.7595L9.48284 14.2839C10.2808 14.6142 10.6606 15.5298 10.3252 16.3277C9.99174 17.1288 9.07613 17.5045 8.27819 17.1732ZM15.2862 11.9355C13.8988 11.9355 12.7695 10.8062 12.7695 9.42297C12.7695 8.03974 13.8988 6.91045 15.2862 6.91045C16.6735 6.91045 17.8028 8.03974 17.8028 9.42297C17.8028 10.8062 16.6777 11.9355 15.2862 11.9355ZM15.2903 11.3068C16.335 11.3068 17.1814 10.4604 17.1814 9.41987C17.1814 8.37523 16.335 7.5329 15.2903 7.5329C14.2457 7.5329 13.3992 8.37935 13.3992 9.41987C13.4034 10.4594 14.2498 11.3068 15.2903 11.3068Z" fill="black"/>
</svg>
