<svg width="24" height="24" viewBox="0 0 24 24" fill="none" xmlns="http://www.w3.org/2000/svg">
<path d="M15.7217 16.3789C16.2657 16.9254 16.9252 17.257 17.6518 17.4631L17.9287 17.5352C18.4479 17.6296 18.7186 18.1028 18.7422 18.5859C18.7422 19.1535 18.3286 19.6367 17.7623 19.7186C17.2183 19.7894 16.6532 19.4466 16.5339 18.9051C16.3688 18.0668 16.0148 17.3352 15.4012 16.7217C15.3304 16.6509 15.3776 16.4969 15.354 16.3789L15.6049 16.359C15.6583 16.3565 15.7018 16.3615 15.7217 16.3789ZM16.724 5.68646C17.8803 6.91604 18.5174 8.36671 18.541 10.0546C18.2566 9.92418 17.9399 9.85338 17.6095 9.85338H17.5623C16.4594 9.89686 15.5528 10.7389 15.4261 11.8356C15.4025 12.0368 15.4025 12.238 15.4261 12.4256C15.0137 12.8392 14.5058 13.0987 13.8798 13.2056H13.8674C12.7024 13.454 11.9584 14.5991 12.2056 15.7641C12.3086 16.2472 12.5744 16.6819 12.9582 16.9924C12.249 17.2085 11.515 17.3327 10.7748 17.3588C9.82712 17.4035 8.87699 17.3129 7.95542 17.0868C7.81383 17.0632 7.63623 17.0868 7.49464 17.134L5.35963 18.1848C5.08763 18.3263 4.83923 18.3499 4.60325 18.1612C4.37845 17.996 4.35485 17.7476 4.37845 17.4532C4.47284 16.8645 4.54363 16.2733 4.60325 15.6834C4.60325 15.5654 4.53246 15.3878 4.43806 15.2934C3.50656 14.3619 2.70423 13.3347 2.30182 12.0368C1.54668 9.46464 2.23102 7.25635 4.09651 5.4157C7.50582 2.07595 13.4662 2.22996 16.724 5.68646ZM20.9729 14.1967C21.5628 14.2675 22 14.7394 22 15.3294C22 15.8945 21.6572 16.3565 21.0921 16.4608C20.4102 16.5788 19.7743 16.8806 19.2515 17.334L19.0627 17.5116C18.9447 17.6296 18.7671 17.7364 18.6491 17.5588C18.6019 17.4644 18.6255 17.2396 18.6963 17.17C19.2515 16.6074 19.6191 15.8858 19.747 15.1046C19.8538 14.5283 20.3891 14.1321 20.9729 14.1967ZM16.5588 13.1348C16.5352 13.2528 16.5824 13.4304 16.5116 13.4999C15.9216 14.0899 15.6037 14.799 15.4373 15.6126C15.328 16.1814 14.7802 16.5565 14.2102 16.4497C13.6475 16.3565 13.2302 15.8759 13.219 15.3058C13.219 14.809 13.5842 14.3494 14.0797 14.255C14.8784 14.1246 15.6161 13.7496 16.1924 13.1807C16.2644 13.1112 16.442 13.1348 16.5588 13.1348ZM17.6095 10.9153C18.1299 10.9153 18.6131 11.2581 18.7186 11.7996C18.8602 12.6144 19.2154 13.3223 19.793 13.9123C19.8638 13.983 19.8166 14.1843 19.8402 14.3022L19.5781 14.3159C19.5247 14.3159 19.48 14.3047 19.4514 14.2786C18.8602 13.6639 18.1287 13.3459 17.3152 13.1695C16.7699 13.0404 16.4085 12.5212 16.4768 11.9648C16.5588 11.3761 17.0196 10.9389 17.6095 10.9153Z" fill="black"/>
</svg>
