<svg width="17" height="16" viewBox="0 0 17 16" fill="none" xmlns="http://www.w3.org/2000/svg">
<rect x="0.344116" width="16" height="16" rx="2.4" fill="black"/>
<path d="M5.06907 8.04409C3.44911 8.04409 2.13074 9.36247 2.13074 10.9824C2.13074 12.6024 3.44911 13.9208 5.06907 13.9208C6.68902 13.9208 8.0074 12.6024 8.0074 10.9824C8.0074 9.36247 6.68902 8.04409 5.06907 8.04409ZM6.98856 10.9824C6.98856 12.041 6.12764 12.918 5.06907 12.918C4.01049 12.918 3.14958 12.041 3.14958 10.9824C3.14958 9.92385 4.01049 9.06293 5.06907 9.06293C6.12764 9.06293 6.98856 9.92385 6.98856 10.9824Z" fill="white"/>
<path d="M14.5586 5.42474C14.4995 5.30248 14.3956 5.21078 14.2662 5.16595C14.2122 5.14761 14.1561 5.13742 14.1001 5.13742C13.8831 5.13742 13.6895 5.27599 13.6192 5.48077C13.3716 6.20007 12.6931 6.683 11.931 6.683C10.9468 6.683 10.146 5.8822 10.146 4.898C10.146 3.9138 10.9468 3.11299 11.931 3.11299C12.6829 3.11299 13.3584 3.58879 13.6121 4.29586C13.6844 4.49759 13.877 4.63412 14.092 4.63412C14.15 4.63412 14.2081 4.62393 14.2631 4.60457C14.528 4.50982 14.6656 4.21741 14.5708 3.95353C14.1745 2.843 13.1129 2.09619 11.932 2.09619C10.3864 2.09619 9.12817 3.35344 9.12817 4.90004C9.12817 6.44663 10.3854 7.70286 11.932 7.70286C13.1281 7.70286 14.1928 6.94383 14.583 5.81393C14.6268 5.68556 14.6187 5.547 14.5586 5.42474Z" fill="white"/>
<path opacity="0.7" d="M8.08178 3.52053C7.99314 3.45328 7.88718 3.41864 7.77612 3.41864C7.61413 3.41864 7.46538 3.49302 7.36859 3.62139C6.87955 4.27141 6.22749 4.63004 5.53366 4.63004C4.47101 4.63004 3.50515 3.75996 3.13022 2.46399C3.06807 2.24698 2.86634 2.09619 2.64118 2.09619C2.59329 2.09619 2.54541 2.10332 2.49956 2.11657C2.36813 2.15427 2.26013 2.24087 2.19391 2.36007C2.1287 2.47927 2.11342 2.61682 2.15112 2.74723C2.6534 4.48333 4.01253 5.64888 5.53264 5.64888C6.54027 5.64888 7.50511 5.13335 8.18162 4.23372C8.35075 4.00957 8.30592 3.68966 8.08178 3.52053Z" fill="white"/>
<path d="M2.64016 2.09619C2.35896 2.09619 2.13074 2.32441 2.13074 2.60561V7.19344C2.13074 7.47464 2.35896 7.70286 2.64016 7.70286C2.92136 7.70286 3.14958 7.47464 3.14958 7.19344V2.60561C3.14958 2.32441 2.92136 2.09619 2.64016 2.09619Z" fill="white"/>
<path d="M7.77504 3.41772C7.49384 3.41772 7.26562 3.64594 7.26562 3.92714V7.19354C7.26562 7.47474 7.49384 7.70296 7.77504 7.70296C8.05624 7.70296 8.28446 7.47474 8.28446 7.19354V3.92714C8.28446 3.64696 8.05624 3.41772 7.77504 3.41772Z" fill="white"/>
<path d="M7.77506 1.948C7.4745 1.948 7.22998 2.19252 7.22998 2.49308C7.22998 2.79363 7.4745 3.03816 7.77506 3.03816C8.07562 3.03816 8.32014 2.79363 8.32014 2.49308C8.32014 2.19252 8.07562 1.948 7.77506 1.948Z" fill="white"/>
<path d="M9.44802 8.37207C9.16682 8.37207 8.9386 8.60098 8.9386 8.88303V13.4101C8.9386 13.6921 9.16682 13.921 9.44802 13.921C9.72922 13.921 9.95744 13.6921 9.95744 13.4101V8.88303C9.95744 8.60098 9.7282 8.37207 9.44802 8.37207Z" fill="white"/>
<path d="M13.9706 8.30713C13.6894 8.30713 13.4612 8.53535 13.4612 8.81655V13.4003C13.4612 13.6815 13.6894 13.9097 13.9706 13.9097C14.2518 13.9097 14.48 13.6815 14.48 13.4003V8.81655C14.48 8.53637 14.2518 8.30713 13.9706 8.30713Z" fill="white"/>
<path opacity="0.7" d="M9.44219 8.3877C9.16609 8.3877 8.94092 8.61592 8.94092 8.89711C8.94092 9.17831 9.16609 9.40653 9.44219 9.40653C10.8197 9.40653 13.4624 11.1111 13.4624 13.3494C13.4624 13.6306 13.6876 13.8589 13.9637 13.8589C14.2398 13.8589 14.4649 13.6306 14.4649 13.3494C14.4649 10.4345 11.2455 8.3877 9.44219 8.3877Z" fill="white"/>
</svg>
