<svg width="24" height="24" viewBox="0 0 24 24" fill="none" xmlns="http://www.w3.org/2000/svg">
<path d="M15 18.75V17.25C15 16.4544 14.6839 15.6913 14.1213 15.1287C13.5587 14.5661 12.7956 14.25 12 14.25H6.75C5.95435 14.25 5.19129 14.5661 4.62868 15.1287C4.06607 15.6913 3.75 16.4544 3.75 17.25V18.75" stroke="black" stroke-width="1.2" stroke-linecap="round" stroke-linejoin="round"/>
<path d="M9.375 11.25C11.0319 11.25 12.375 9.90685 12.375 8.25C12.375 6.59315 11.0319 5.25 9.375 5.25C7.71815 5.25 6.375 6.59315 6.375 8.25C6.375 9.90685 7.71815 11.25 9.375 11.25Z" stroke="black" stroke-width="1.2" stroke-linecap="round" stroke-linejoin="round"/>
<path d="M18.1641 12.375L20.3 14.5" stroke="black" stroke-width="1.2" stroke-linecap="round" stroke-linejoin="round"/>
<circle cx="16.7193" cy="10.8383" r="2.09235" stroke="black" stroke-width="1.2"/>
</svg>
