<svg width="1362" height="224" viewBox="0 0 1362 224" fill="none" xmlns="http://www.w3.org/2000/svg">
<g clip-path="url(#clip0_1236_1988)">
<g filter="url(#filter0_di_1236_1988)">
<g filter="url(#filter1_i_1236_1988)">
<path d="M755.798 58.1185C755.153 65.103 752.531 71.7593 748.241 77.3085C743.95 82.8576 738.168 87.0701 731.571 89.4531C724.974 91.836 717.835 92.2908 710.989 90.7643C704.142 89.2377 697.872 85.793 692.913 80.8331C687.953 75.8732 684.508 69.6034 682.981 62.7572C681.455 55.911 681.91 48.7717 684.293 42.1745C686.676 35.5774 690.888 29.7953 696.437 25.5049C701.986 21.2145 708.643 18.5932 715.627 17.9478C711.538 23.48 709.57 30.2963 710.082 37.1567C710.593 44.0172 713.55 50.4662 718.415 55.3307C723.28 60.1953 729.729 63.1523 736.589 63.6639C743.449 64.1755 750.266 62.2077 755.798 58.1185Z" fill="#323232" stroke="#323232" stroke-width="2.59912" stroke-linecap="round" stroke-linejoin="round"/>
</g>
<g filter="url(#filter2_i_1236_1988)">
<path d="M545.613 15.7938V30.1124" stroke="#323232" stroke-width="10.5833" stroke-linecap="round" stroke-linejoin="round"/>
<path d="M545.613 77.3713V91.6899" stroke="#323232" stroke-width="10.5833" stroke-linecap="round" stroke-linejoin="round"/>
<path d="M519.005 26.9125L528.802 36.7912" stroke="#323232" stroke-width="10.5833" stroke-linecap="round" stroke-linejoin="round"/>
<path d="M562.423 70.6924L572.22 80.5711" stroke="#323232" stroke-width="10.5833" stroke-linecap="round" stroke-linejoin="round"/>
<path d="M507.979 53.7419H522.179" stroke="#323232" stroke-width="10.5833" stroke-linecap="round" stroke-linejoin="round"/>
<path d="M569.047 53.7419H583.247" stroke="#323232" stroke-width="10.5833" stroke-linecap="round" stroke-linejoin="round"/>
<path d="M519.005 80.5711L528.802 70.6924" stroke="#323232" stroke-width="10.5833" stroke-linecap="round" stroke-linejoin="round"/>
<path d="M562.423 36.7912L572.22 26.9125" stroke="#323232" stroke-width="10.5833" stroke-linecap="round" stroke-linejoin="round"/>
</g>
</g>
<g filter="url(#filter3_di_1236_1988)">
<g filter="url(#filter4_i_1236_1988)">
<path d="M531.586 188.747C540.247 192.275 549.335 193.802 559.358 193.802C569.382 193.802 579.166 192.122 587.157 188.822C588.665 188.206 590.005 187.141 589.037 185.181C588.251 183.589 569.253 141.716 562.035 126.781C561.792 126.276 561.412 125.85 560.938 125.552C560.463 125.255 559.915 125.097 559.355 125.097C558.795 125.097 558.246 125.255 557.772 125.552C557.297 125.85 556.917 126.276 556.674 126.781L529.781 185.069C529.185 186.357 529.613 187.944 531.586 188.747Z" stroke="#323232" stroke-width="9.55855" stroke-miterlimit="10"/>
<path d="M525.683 196.289C535.404 200.135 547.378 202.764 559.358 202.764C571.338 202.764 583.133 200.378 593.06 196.401C593.935 196.043 595.576 195.216 595.126 193.825L593.319 189.322C592.572 187.791 591.701 187.791 590.508 187.791C590.173 187.791 589.707 187.978 589.148 188.198C579.649 191.888 569.549 193.788 559.358 193.802C548.762 193.802 537.906 191.562 529.562 188.202C528.892 187.94 528.519 187.795 528.203 187.795C526.975 187.795 526.266 187.386 525.403 189.307L523.579 193.802C523.204 194.923 524.511 195.822 525.683 196.289Z" stroke="#323232" stroke-width="9.55855" stroke-miterlimit="10"/>
<path d="M569.742 170.425C567.543 170.425 565.76 172.208 565.76 174.408C565.76 176.607 567.543 178.391 569.742 178.391C571.942 178.391 573.725 176.607 573.725 174.408C573.725 172.208 571.942 170.425 569.742 170.425Z" fill="#323232" stroke="#323232" stroke-width="2.38964"/>
<path d="M549.401 170.425C547.202 170.425 545.419 172.208 545.419 174.408C545.419 176.607 547.202 178.391 549.401 178.391C551.601 178.391 553.384 176.607 553.384 174.408C553.384 172.208 551.601 170.425 549.401 170.425Z" fill="#323232" stroke="#323232" stroke-width="2.38964"/>
<path d="M559.358 153.399C557.159 153.399 555.375 155.182 555.375 157.381C555.375 159.581 557.159 161.364 559.358 161.364C561.558 161.364 563.341 159.581 563.341 157.381C563.341 155.182 561.558 153.399 559.358 153.399Z" fill="#323232" stroke="#323232" stroke-width="2.38964"/>
</g>
<path d="M795.484 204.556H812.342V151.629H819.455L805.285 140.932L849.307 204.556H863.981V123.738H847.123V176.272H840.066L854.236 186.97L810.27 123.738H795.484V204.556Z" fill="#CCCCCC"/>
<path d="M310 95.5853H325.178V40.5174H333.077L316.037 16.4253L347.633 95.5853H358.354L389.95 16.4253L372.911 40.5174H380.81V95.5853H395.987V14.1684H376.296L353.163 72.6779H352.824L329.691 14.1684H310V95.5853Z" fill="#CCCCCC"/>
<path d="M596.313 95.5853H613.296V42.2665H620.462L606.187 31.4899L650.535 95.5853H665.317V14.1684H648.334V67.0922H641.225L655.5 77.8688L611.209 14.1684H596.313V95.5853Z" fill="#CCCCCC"/>
<path d="M771.944 95.5853H788.983V14.1684H771.944V95.5853Z" fill="#CCCCCC"/>
<path d="M981.293 95.5853H998.276V42.2665H1005.44L991.167 31.4899L1035.51 95.5853H1050.3V14.1684H1033.31V67.0922H1026.2L1040.48 77.8688L996.189 14.1684H981.293V95.5853Z" fill="#CCCCCC"/>
<path d="M880 87.0853C870.5 93.5853 860.442 95.5853 851.379 95.5853C839.24 95.5853 829.205 92.5272 821.275 84.9999C813.425 77.3926 808.5 66.6374 808.5 54.1454C808.5 41.8936 813.384 31.6873 821.153 23.9999C829.003 16.2324 839.078 12.5853 851.379 12.5853C860.361 12.5853 871 14.9999 880 22.0853L872 33.0853C866 29.0853 859.431 26.5188 851.986 26.5188C844.54 26.5188 838.309 29.0412 833.292 34.0861C828.355 39.0508 825.887 45.7373 825.887 54.1454C825.887 62.5535 828.355 69.2399 833.292 74.2047C838.309 79.1695 844.824 81.6519 852.835 81.6519C860.523 81.6519 866.5 80.0853 872 75.0853L880 87.0853Z" fill="#CCCCCC"/>
<path d="M450.386 96C475.063 96 493 77.3135 493 54.5V54.2707C493 31.4572 475.292 13 450.614 13C425.937 13 408 31.6865 408 54.5V54.7293C408 77.5428 425.708 96 450.386 96ZM450.614 81.7337C435.448 81.7337 424.397 69.2574 424.397 54.5V54.2707C424.397 39.5133 435.219 27.2663 450.386 27.2663C465.552 27.2663 476.603 39.7426 476.603 54.5V54.7293C476.603 69.4867 465.781 81.7337 450.614 81.7337Z" fill="#CCCCCC"/>
<path d="M927.386 96C952.063 96 970 77.3135 970 54.5V54.2707C970 31.4572 952.292 13 927.614 13C902.937 13 885 31.6865 885 54.5V54.7293C885 77.5428 902.708 96 927.386 96ZM927.614 81.7337C912.448 81.7337 902.397 69.2574 902.397 54.5V54.2707C902.397 39.5133 912.219 27.2663 927.386 27.2663C942.552 27.2663 953.603 39.7426 953.603 54.5V54.7293C953.603 69.4867 943.781 81.7337 927.614 81.7337Z" fill="#CCCCCC"/>
<path d="M984.602 204.556H1001.12L1016.02 150.397H1016.36L1031.2 204.556H1047.72L1069.17 123.738H1051.64L1038.82 181.649H1038.48L1023.58 123.738H1008.74L993.843 181.649H993.507L980.737 123.738H963.207L984.602 204.556Z" fill="#CCCCCC"/>
<g filter="url(#filter5_i_1236_1988)">
<path d="M318.908 134.353H368.187" stroke="#323232" stroke-width="11.9482" stroke-linecap="round" stroke-linejoin="round"/>
<path d="M318.908 163.932H368.187" stroke="#323232" stroke-width="11.9482" stroke-linecap="round" stroke-linejoin="round"/>
<path d="M318.908 193.511H368.187" stroke="#323232" stroke-width="11.9482" stroke-linecap="round" stroke-linejoin="round"/>
<path d="M299.791 134.353H299.838" stroke="#323232" stroke-width="14.3378" stroke-linecap="round" stroke-linejoin="round"/>
<path d="M299.791 163.932H299.838" stroke="#323232" stroke-width="14.3378" stroke-linecap="round" stroke-linejoin="round"/>
<path d="M299.791 193.511H299.838" stroke="#323232" stroke-width="14.3378" stroke-linecap="round" stroke-linejoin="round"/>
</g>
<g filter="url(#filter6_i_1236_1988)">
<path d="M912.778 128.748C914.984 124.919 920.51 124.919 922.716 128.748L926.054 134.542C927.352 136.794 930.002 137.891 932.512 137.217L938.964 135.484C943.23 134.338 947.136 138.241 945.992 142.507L944.255 148.986C943.583 151.493 944.679 154.14 946.927 155.438L952.731 158.79C956.554 160.997 956.554 166.515 952.731 168.723L946.927 172.075C944.679 173.373 943.583 176.019 944.255 178.526L945.992 185.005C947.136 189.271 943.23 193.175 938.964 192.029L932.512 190.295C930.002 189.621 927.352 190.719 926.054 192.971L922.716 198.764C920.51 202.593 914.984 202.593 912.778 198.764L909.44 192.971C908.142 190.719 905.492 189.621 902.982 190.295L896.53 192.029C892.264 193.175 888.358 189.271 889.502 185.005L891.239 178.526C891.911 176.019 890.815 173.373 888.567 172.075L882.763 168.723C878.94 166.515 878.94 160.997 882.763 158.79L888.567 155.438C890.815 154.14 891.911 151.493 891.239 148.986L889.502 142.507C888.358 138.241 892.264 134.338 896.53 135.484L902.982 137.217C905.492 137.891 908.142 136.794 909.44 134.542L912.778 128.748Z" stroke="#323232" stroke-width="9.03226"/>
<ellipse cx="917.747" cy="163.756" rx="10.935" ry="10.9467" stroke="#323232" stroke-width="9.03226"/>
</g>
<path d="M216.242 204.556H233.281V175.047H246.089C246.24 175.047 246.39 175.047 246.541 175.047C246.691 175.047 246.823 175.047 246.936 175.047L262.113 204.556H281.409L264.257 172.508C268.771 170.74 272.344 167.768 274.977 163.593C277.648 159.418 278.983 154.66 278.983 149.319V149.206C278.983 143.752 277.817 139.087 275.485 135.213C273.191 131.301 269.862 128.311 265.498 126.242C261.173 124.173 255.963 123.139 249.869 123.139H216.242V204.556ZM233.281 162.126V136.454H247.782C251.995 136.454 255.342 137.602 257.825 139.896C260.308 142.191 261.549 145.294 261.549 149.206V149.319C261.549 153.306 260.345 156.446 257.938 158.741C255.568 160.998 252.258 162.126 248.008 162.126H233.281Z" fill="#CCCCCC"/>
<path d="M390.962 204.556H443.604V190.507H408.001V123.139H390.962V204.556Z" fill="#CCCCCC"/>
<path d="M456.093 204.556H510.032V190.507H473.132V170.025H507.945V156.71H473.132V137.188H510.032V123.139H456.093V204.556Z" fill="#CCCCCC"/>
<path d="M639.848 205.966C646.693 205.966 652.561 204.932 657.451 202.863C662.379 200.757 666.14 197.804 668.736 194.005C671.369 190.168 672.685 185.635 672.685 180.407V180.351C672.685 176.1 671.801 172.47 670.033 169.461C668.303 166.414 665.614 163.894 661.965 161.901C658.316 159.907 653.652 158.346 647.972 157.218L639.34 155.469C634.676 154.528 631.253 153.268 629.071 151.688C626.889 150.108 625.798 148.04 625.798 145.482V145.425C625.798 143.469 626.344 141.758 627.435 140.291C628.563 138.824 630.181 137.677 632.287 136.849C634.393 135.984 636.895 135.552 639.791 135.552C642.612 135.552 645.095 135.965 647.239 136.793C649.421 137.62 651.17 138.805 652.486 140.347C653.803 141.852 654.611 143.676 654.912 145.82L654.969 146.497H671.049L670.993 145.425C670.729 140.686 669.319 136.53 666.761 132.956C664.203 129.383 660.63 126.618 656.041 124.662C651.489 122.706 646.073 121.728 639.791 121.728C633.773 121.728 628.432 122.763 623.767 124.831C619.103 126.863 615.436 129.74 612.765 133.464C610.094 137.15 608.759 141.476 608.759 146.441V146.497C608.759 152.629 610.79 157.613 614.853 161.449C618.915 165.286 624.952 168.013 632.964 169.63L641.54 171.323C646.618 172.376 650.229 173.693 652.373 175.273C654.555 176.815 655.646 178.959 655.646 181.705V181.761C655.646 183.83 655.006 185.654 653.727 187.234C652.486 188.776 650.718 189.98 648.424 190.845C646.167 191.673 643.459 192.086 640.299 192.086C637.215 192.086 634.45 191.673 632.005 190.845C629.56 189.98 627.566 188.795 626.024 187.291C624.52 185.748 623.579 183.924 623.203 181.818L623.09 181.197H607.01L607.066 182.1C607.405 187.102 608.947 191.391 611.693 194.964C614.439 198.5 618.2 201.227 622.977 203.145C627.792 205.026 633.415 205.966 639.848 205.966Z" fill="#CCCCCC"/>
<path d="M683.123 204.556H737.063V190.507H700.163V170.025H734.975V156.71H700.163V137.188H737.063V123.139H683.123V204.556Z" fill="#CCCCCC"/>
<g filter="url(#filter7_i_1236_1988)">
<path d="M1081.02 195.168L1139.57 136.622" stroke="#323232" stroke-width="12.6452" stroke-linecap="square" stroke-linejoin="round"/>
<path d="M1091.77 131.843L1144.35 131.843L1144.35 184.415" stroke="#323232" stroke-width="12.6452" stroke-linecap="square" stroke-linejoin="round"/>
</g>
</g>
</g>
<defs>
<filter id="filter0_di_1236_1988" x="314.387" y="-2.70965" width="733.419" height="123.742" filterUnits="userSpaceOnUse" color-interpolation-filters="sRGB">
<feFlood flood-opacity="0" result="BackgroundImageFix"/>
<feColorMatrix in="SourceAlpha" type="matrix" values="0 0 0 0 0 0 0 0 0 0 0 0 0 0 0 0 0 0 127 0" result="hardAlpha"/>
<feOffset dy="1.80645"/>
<feGaussianBlur stdDeviation="1.80645"/>
<feComposite in2="hardAlpha" operator="out"/>
<feColorMatrix type="matrix" values="0 0 0 0 1 0 0 0 0 1 0 0 0 0 1 0 0 0 0.3 0"/>
<feBlend mode="normal" in2="BackgroundImageFix" result="effect1_dropShadow_1236_1988"/>
<feBlend mode="normal" in="SourceGraphic" in2="effect1_dropShadow_1236_1988" result="shape"/>
<feColorMatrix in="SourceAlpha" type="matrix" values="0 0 0 0 0 0 0 0 0 0 0 0 0 0 0 0 0 0 127 0" result="hardAlpha"/>
<feOffset dy="0.903226"/>
<feGaussianBlur stdDeviation="1.80645"/>
<feComposite in2="hardAlpha" operator="arithmetic" k2="-1" k3="1"/>
<feColorMatrix type="matrix" values="0 0 0 0 0 0 0 0 0 0 0 0 0 0 0 0 0 0 0.1 0"/>
<feBlend mode="normal" in2="shape" result="effect2_innerShadow_1236_1988"/>
</filter>
<filter id="filter1_i_1236_1988" x="665.154" y="1.16174" width="107.43" height="109.237" filterUnits="userSpaceOnUse" color-interpolation-filters="sRGB">
<feFlood flood-opacity="0" result="BackgroundImageFix"/>
<feBlend mode="normal" in="SourceGraphic" in2="BackgroundImageFix" result="shape"/>
<feColorMatrix in="SourceAlpha" type="matrix" values="0 0 0 0 0 0 0 0 0 0 0 0 0 0 0 0 0 0 127 0" result="hardAlpha"/>
<feOffset dy="1.80645"/>
<feGaussianBlur stdDeviation="1.80645"/>
<feComposite in2="hardAlpha" operator="arithmetic" k2="-1" k3="1"/>
<feColorMatrix type="matrix" values="0 0 0 0 0 0 0 0 0 0 0 0 0 0 0 0 0 0 0.05 0"/>
<feBlend mode="normal" in2="shape" result="effect1_innerShadow_1236_1988"/>
</filter>
<filter id="filter2_i_1236_1988" x="491.419" y="-0.903198" width="108.387" height="111.097" filterUnits="userSpaceOnUse" color-interpolation-filters="sRGB">
<feFlood flood-opacity="0" result="BackgroundImageFix"/>
<feBlend mode="normal" in="SourceGraphic" in2="BackgroundImageFix" result="shape"/>
<feColorMatrix in="SourceAlpha" type="matrix" values="0 0 0 0 0 0 0 0 0 0 0 0 0 0 0 0 0 0 127 0" result="hardAlpha"/>
<feOffset dy="1.80645"/>
<feGaussianBlur stdDeviation="1.80645"/>
<feComposite in2="hardAlpha" operator="arithmetic" k2="-1" k3="1"/>
<feColorMatrix type="matrix" values="0 0 0 0 0 0 0 0 0 0 0 0 0 0 0 0 0 0 0.05 0"/>
<feBlend mode="normal" in2="shape" result="effect1_innerShadow_1236_1988"/>
</filter>
<filter id="filter3_di_1236_1988" x="212.629" y="10.7789" width="964.742" height="218.64" filterUnits="userSpaceOnUse" color-interpolation-filters="sRGB">
<feFlood flood-opacity="0" result="BackgroundImageFix"/>
<feColorMatrix in="SourceAlpha" type="matrix" values="0 0 0 0 0 0 0 0 0 0 0 0 0 0 0 0 0 0 127 0" result="hardAlpha"/>
<feOffset dy="1.80645"/>
<feGaussianBlur stdDeviation="1.80645"/>
<feComposite in2="hardAlpha" operator="out"/>
<feColorMatrix type="matrix" values="0 0 0 0 1 0 0 0 0 1 0 0 0 0 1 0 0 0 0.3 0"/>
<feBlend mode="normal" in2="BackgroundImageFix" result="effect1_dropShadow_1236_1988"/>
<feBlend mode="normal" in="SourceGraphic" in2="effect1_dropShadow_1236_1988" result="shape"/>
<feColorMatrix in="SourceAlpha" type="matrix" values="0 0 0 0 0 0 0 0 0 0 0 0 0 0 0 0 0 0 127 0" result="hardAlpha"/>
<feOffset dy="0.903226"/>
<feGaussianBlur stdDeviation="1.80645"/>
<feComposite in2="hardAlpha" operator="arithmetic" k2="-1" k3="1"/>
<feColorMatrix type="matrix" values="0 0 0 0 0 0 0 0 0 0 0 0 0 0 0 0 0 0 0.1 0"/>
<feBlend mode="normal" in2="shape" result="effect2_innerShadow_1236_1988"/>
</filter>
<filter id="filter4_i_1236_1988" x="502.007" y="106.581" width="114.703" height="116.509" filterUnits="userSpaceOnUse" color-interpolation-filters="sRGB">
<feFlood flood-opacity="0" result="BackgroundImageFix"/>
<feBlend mode="normal" in="SourceGraphic" in2="BackgroundImageFix" result="shape"/>
<feColorMatrix in="SourceAlpha" type="matrix" values="0 0 0 0 0 0 0 0 0 0 0 0 0 0 0 0 0 0 127 0" result="hardAlpha"/>
<feOffset dy="1.80645"/>
<feGaussianBlur stdDeviation="1.80645"/>
<feComposite in2="hardAlpha" operator="arithmetic" k2="-1" k3="1"/>
<feColorMatrix type="matrix" values="0 0 0 0 0 0 0 0 0 0 0 0 0 0 0 0 0 0 0.05 0"/>
<feBlend mode="normal" in2="shape" result="effect1_innerShadow_1236_1988"/>
</filter>
<filter id="filter5_i_1236_1988" x="280.674" y="106.581" width="114.703" height="116.509" filterUnits="userSpaceOnUse" color-interpolation-filters="sRGB">
<feFlood flood-opacity="0" result="BackgroundImageFix"/>
<feBlend mode="normal" in="SourceGraphic" in2="BackgroundImageFix" result="shape"/>
<feColorMatrix in="SourceAlpha" type="matrix" values="0 0 0 0 0 0 0 0 0 0 0 0 0 0 0 0 0 0 127 0" result="hardAlpha"/>
<feOffset dy="1.80645"/>
<feGaussianBlur stdDeviation="1.80645"/>
<feComposite in2="hardAlpha" operator="arithmetic" k2="-1" k3="1"/>
<feColorMatrix type="matrix" values="0 0 0 0 0 0 0 0 0 0 0 0 0 0 0 0 0 0 0.05 0"/>
<feBlend mode="normal" in2="shape" result="effect1_innerShadow_1236_1988"/>
</filter>
<filter id="filter6_i_1236_1988" x="860.452" y="106.581" width="114.703" height="116.509" filterUnits="userSpaceOnUse" color-interpolation-filters="sRGB">
<feFlood flood-opacity="0" result="BackgroundImageFix"/>
<feBlend mode="normal" in="SourceGraphic" in2="BackgroundImageFix" result="shape"/>
<feColorMatrix in="SourceAlpha" type="matrix" values="0 0 0 0 0 0 0 0 0 0 0 0 0 0 0 0 0 0 127 0" result="hardAlpha"/>
<feOffset dy="1.80645"/>
<feGaussianBlur stdDeviation="1.80645"/>
<feComposite in2="hardAlpha" operator="arithmetic" k2="-1" k3="1"/>
<feColorMatrix type="matrix" values="0 0 0 0 0 0 0 0 0 0 0 0 0 0 0 0 0 0 0.05 0"/>
<feBlend mode="normal" in2="shape" result="effect1_innerShadow_1236_1988"/>
</filter>
<filter id="filter7_i_1236_1988" x="1053.54" y="107.946" width="114.703" height="116.509" filterUnits="userSpaceOnUse" color-interpolation-filters="sRGB">
<feFlood flood-opacity="0" result="BackgroundImageFix"/>
<feBlend mode="normal" in="SourceGraphic" in2="BackgroundImageFix" result="shape"/>
<feColorMatrix in="SourceAlpha" type="matrix" values="0 0 0 0 0 0 0 0 0 0 0 0 0 0 0 0 0 0 127 0" result="hardAlpha"/>
<feOffset dy="1.80645"/>
<feGaussianBlur stdDeviation="1.80645"/>
<feComposite in2="hardAlpha" operator="arithmetic" k2="-1" k3="1"/>
<feColorMatrix type="matrix" values="0 0 0 0 0 0 0 0 0 0 0 0 0 0 0 0 0 0 0.05 0"/>
<feBlend mode="normal" in2="shape" result="effect1_innerShadow_1236_1988"/>
</filter>
<clipPath id="clip0_1236_1988">
<rect width="1362" height="224" fill="white"/>
</clipPath>
</defs>
</svg>
