<svg width="24" height="24" viewBox="0 0 24 24" fill="none" xmlns="http://www.w3.org/2000/svg">
<path d="M7.35 14.9V14.9C7.35 14.8982 7.34854 14.8967 7.3467 14.8966C5.48483 14.8131 4 13.2169 4 11.26C4 9.24968 5.567 7.62 7.5 7.62V7.62C7.91688 7.62 8.32065 7.39141 8.50753 7.01877C9.25822 5.52192 10.7644 4.5 12.5 4.5C14.8073 4.5 16.709 6.3059 16.9696 8.63273C16.9713 8.64823 16.9844 8.66007 17 8.66V8.66C18.6569 8.66 20 10.0569 20 11.78C20 13.4502 18.7382 14.8138 17.1519 14.8961C17.1508 14.8961 17.15 14.897 17.15 14.898V14.898C17.15 14.8991 17.1491 14.9 17.148 14.9H17" stroke="black" stroke-width="1.2" stroke-linecap="round"/>
<path d="M8.53613 18.1427L10.9939 16.7237M10.9939 18.1427L8.53616 16.7237M9.76514 16.0142L9.76513 18.8522M13.2515 18.1427L15.7092 16.7237M15.7092 18.1427L13.2515 16.7237M14.4805 16.0142L14.4805 18.8522" stroke="black" stroke-width="1.2" stroke-linecap="round"/>
<path d="M8.53613 13.3663L10.9939 11.9474M10.9939 13.3663L8.53616 11.9474M9.76514 11.2379L9.76513 14.0758M13.2515 13.3663L15.7092 11.9474M15.7092 13.3663L13.2515 11.9474M14.4805 11.2379L14.4805 14.0758" stroke="black" stroke-width="1.2" stroke-linecap="round"/>
</svg>
