<svg width="24" height="24" viewBox="0 0 24 24" fill="none" xmlns="http://www.w3.org/2000/svg">
<path d="M3.6001 14.4607C3.6001 16.312 4.85809 17.822 6.43527 17.9002C6.43611 17.9003 6.43679 17.901 6.43679 17.9018C6.43679 17.9027 6.4375 17.9034 6.43838 17.9034L10.7977 17.8998L14.7333 17.9034C14.7343 17.9034 14.7352 17.9026 14.7352 17.9015C14.7352 17.9006 14.7359 17.8997 14.7369 17.8997C16.0801 17.8218 17.1485 16.5321 17.1485 14.9526C17.1485 13.3228 16.0111 12.0017 14.6081 12.0017C14.595 12.0018 14.5839 11.9917 14.5826 11.9786C14.363 9.77661 12.7522 8.06723 10.7977 8.06723C9.30858 8.06723 8.01899 9.05943 7.39212 10.5057C7.25356 10.8254 6.91224 11.0181 6.5638 11.0181C4.92699 11.0181 3.6001 12.5594 3.6001 14.4607Z" stroke="black" stroke-width="1.2" stroke-linecap="round"/>
<path d="M18.7861 15.7552C19.7524 15.3367 20.4408 14.2532 20.4408 12.9853C20.4408 11.3556 19.3035 10.0345 17.9005 10.0345V10.0345C17.8873 10.0345 17.8763 10.0245 17.875 10.0114C17.6554 7.80939 16.0445 6.10001 14.09 6.10001C13.4469 6.10001 12.841 6.28508 12.3096 6.61189" stroke="black" stroke-width="1.2" stroke-linecap="round"/>
</svg>
