<svg width="24" height="24" viewBox="0 0 24 24" fill="none" xmlns="http://www.w3.org/2000/svg">
<path d="M6.18551 13.7877C6.30301 13.7695 6.41177 13.7146 6.49629 13.631C6.58081 13.5474 6.63679 13.4392 6.65625 13.3219C7.08129 10.7404 8.96355 9.1875 11.1562 9.1875C13.1929 9.1875 14.553 10.5146 15.1008 11.9205C15.136 12.0107 15.194 12.09 15.2692 12.1509C15.3445 12.2117 15.4342 12.2519 15.5297 12.2675C17.2875 12.5541 18.75 13.7279 18.75 15.7688C18.75 17.857 17.0414 19.3125 14.9531 19.3125H6.72656C4.98633 19.3125 3.5625 18.4441 3.5625 16.5281C3.5625 14.8241 4.92199 13.9891 6.18551 13.7877Z" stroke="black" stroke-width="1.2" stroke-linejoin="round"/>
<path d="M16.5282 12.5414C16.872 12.2762 17.1498 11.935 17.3397 11.5445C17.5297 11.154 17.6266 10.7248 17.6229 10.2906C17.6193 9.85632 17.5151 9.42884 17.3186 9.04159C17.1221 8.65435 16.8386 8.31787 16.4903 8.05852C16.142 7.79917 15.7384 7.62399 15.3111 7.54671C14.8838 7.46943 14.4443 7.49215 14.0273 7.61308C13.6102 7.73402 13.2268 7.94989 12.9071 8.24378C12.5874 8.53767 12.3401 8.90159 12.1846 9.30703M19.3125 10.3125H20.4375M14.8125 4.6875V5.8125M10.835 6.33492L11.6305 7.13051M18.7901 6.33492L17.9945 7.13051" stroke="black" stroke-width="1.2" stroke-linecap="round" stroke-linejoin="round"/>
</svg>
