<svg width="24" height="24" viewBox="0 0 24 24" fill="none" xmlns="http://www.w3.org/2000/svg">
<path d="M3 13.8C3 16.0586 4.67142 17.9008 6.76689 17.9961C6.76792 17.9962 6.76875 17.997 6.76875 17.9981C6.76875 17.9991 6.76962 18 6.77069 18L12.5625 17.9956L17.7915 18C17.7927 18 17.7937 17.999 17.7937 17.9977C17.7937 17.9965 17.7947 17.9955 17.7959 17.9955C19.5805 17.9005 21 16.3271 21 14.4C21 12.4118 19.489 10.8 17.625 10.8C17.6075 10.8001 17.5927 10.7867 17.5908 10.7693C17.298 8.08414 15.1584 6 12.5625 6C10.6039 6 8.905 7.18645 8.06315 8.92234C7.8591 9.34308 7.40511 9.6 6.9375 9.6C4.76288 9.6 3 11.4804 3 13.8Z" stroke="black" stroke-width="1.2" stroke-linecap="round"/>
</svg>
