<svg width="24" height="24" viewBox="0 0 24 24" fill="none" xmlns="http://www.w3.org/2000/svg">
<path d="M7.35 15.4V15.4C7.35 15.3982 7.34854 15.3967 7.3467 15.3966C5.48483 15.3131 4 13.7169 4 11.76C4 9.74968 5.567 8.12 7.5 8.12V8.12C7.91688 8.12 8.32065 7.89141 8.50753 7.51877C9.25822 6.02192 10.7644 5 12.5 5C14.8073 5 16.709 6.8059 16.9696 9.13273C16.9713 9.14823 16.9844 9.16007 17 9.16V9.16C18.6569 9.16 20 10.5569 20 12.28C20 13.9502 18.7382 15.3138 17.1519 15.3961C17.1508 15.3961 17.15 15.397 17.15 15.398V15.398C17.15 15.3991 17.1491 15.4 17.148 15.4H17" stroke="black" stroke-width="1.2" stroke-linecap="round"/>
<path d="M10.9776 14.4766L13.4353 13.0576M13.4353 14.4766L10.9776 13.0576M12.2066 12.3481L12.2066 15.1861M8.53613 18.1427L10.9939 16.7238M10.9939 18.1427L8.53616 16.7237M9.76514 16.0142L9.76513 18.8522M13.2515 18.1427L15.7092 16.7238M15.7092 18.1427L13.2515 16.7237M14.4805 16.0142L14.4805 18.8522" stroke="black" stroke-width="1.2" stroke-linecap="round"/>
</svg>
