<svg width="24" height="24" viewBox="0 0 24 24" fill="none" xmlns="http://www.w3.org/2000/svg">
<path d="M20.25 12.7242C20.1058 14.2845 19.5202 15.7715 18.5618 17.0112C17.6033 18.2509 16.3116 19.192 14.8378 19.7243C13.364 20.2567 11.769 20.3583 10.2396 20.0173C8.71013 19.6762 7.30944 18.9067 6.2014 17.7986C5.09337 16.6906 4.32381 15.2899 3.98278 13.7605C3.64175 12.231 3.74335 10.6361 4.2757 9.16227C4.80805 7.68847 5.74913 6.39675 6.98881 5.43827C8.22849 4.47979 9.71551 3.8942 11.2759 3.75C10.3623 4.98591 9.92273 6.50866 10.037 8.0413C10.1513 9.57393 10.8119 11.0146 11.8986 12.1014C12.9854 13.1881 14.4261 13.8487 15.9587 13.963C17.4914 14.0773 19.0141 13.6377 20.25 12.7242Z" stroke="black" stroke-width="1.2" stroke-linecap="round" stroke-linejoin="round"/>
</svg>
