<svg width="24" height="24" viewBox="0 0 24 24" fill="none" xmlns="http://www.w3.org/2000/svg">
<path d="M13.5 13.5L11.5 18.5M17.5 13.5L15.5 18.5" stroke="black" stroke-width="1.2" stroke-linecap="round"/>
<path d="M20 11.5C19.4581 10.6901 18.0207 9.66 17 9.66V9.66C16.9844 9.66007 16.9713 9.64823 16.9696 9.63273C16.709 7.3059 14.8073 5.5 12.5 5.5C10.7644 5.5 9.25822 6.52192 8.50753 8.01877C8.32065 8.39141 7.91688 8.62 7.5 8.62V8.62C5.567 8.62 4 10.2497 4 12.26C4 14.2175 5.48573 15.8141 7.34839 15.8966C7.34928 15.8967 7.35 15.8974 7.35 15.8983V15.8983C7.35 15.8992 7.35075 15.9 7.35168 15.9H8.675" stroke="black" stroke-width="1.2" stroke-linecap="round"/>
</svg>
