<svg width="24" height="24" viewBox="0 0 24 24" fill="none" xmlns="http://www.w3.org/2000/svg">
<path d="M10.9837 13L8.78369 19" stroke="black" stroke-width="1.2" stroke-linecap="round"/>
<path d="M7.35 15.9V15.9C7.35 15.8982 7.34854 15.8967 7.3467 15.8966C5.48483 15.8131 4 14.2169 4 12.26C4 10.2497 5.567 8.62 7.5 8.62V8.62C7.91688 8.62 8.32065 8.39141 8.50753 8.01877C9.25822 6.52192 10.7644 5.5 12.5 5.5C14.8073 5.5 16.709 7.3059 16.9696 9.63273C16.9713 9.64823 16.9844 9.66007 17 9.66V9.66C18.6569 9.66 20 11.0569 20 12.78C20 14.4502 18.7382 15.8138 17.1519 15.8961C17.1508 15.8961 17.15 15.897 17.15 15.898V15.898C17.15 15.8991 17.1491 15.9 17.148 15.9H17" stroke="black" stroke-width="1.2" stroke-linecap="round"/>
<path d="M12.5002 16.996L14.958 15.5771M14.958 16.996L12.5003 15.5771M13.7292 14.8676L13.7292 17.7055" stroke="black" stroke-width="1.2" stroke-linecap="round"/>
</svg>
