<svg width="24" height="24" viewBox="0 0 24 24" fill="none" xmlns="http://www.w3.org/2000/svg">
<path d="M3.18335 11.0865C3.18335 13.2619 4.82074 15.0363 6.87355 15.1281C6.87454 15.1281 6.87534 15.1289 6.87534 15.1299C6.87534 15.131 6.87617 15.1318 6.8772 15.1318L12.5511 15.1275L17.6736 15.1318C17.6748 15.1318 17.6758 15.1308 17.6758 15.1296C17.6758 15.1285 17.6767 15.1275 17.6779 15.1274C19.4261 15.036 20.8167 13.5205 20.8167 11.6644C20.8167 9.74941 19.3365 8.197 17.5105 8.197C17.4933 8.19708 17.4788 8.18402 17.4769 8.16694C17.1899 5.58091 15.094 3.57379 12.5511 3.57379C10.6363 3.57379 8.97494 4.71184 8.14849 6.37816C7.94454 6.78935 7.49964 7.0412 7.04065 7.0412C4.91032 7.0412 3.18335 8.85234 3.18335 11.0865Z" stroke="black" stroke-width="1.2" stroke-linecap="round"/>
<path d="M4.5 17.5H14.5M16.5 17.5H19.5M4.5 19.8129H7.5M9.5 19.8129H19.5" stroke="black" stroke-width="1.2" stroke-linecap="round"/>
</svg>
