<svg width="24" height="24" viewBox="0 0 24 24" fill="none" xmlns="http://www.w3.org/2000/svg">
<path d="M12.005 3.25903V20.759M14.2597 5.13403C13.5792 5.54417 12.7995 5.7603 12.005 5.75903C11.2105 5.7603 10.4308 5.54417 9.75029 5.13403M9.75029 18.884C10.4313 18.4751 11.2106 18.259 12.005 18.259C12.7993 18.259 13.5787 18.4751 14.2597 18.884M19.5827 7.63403L4.42725 16.384M19.0858 10.5247C18.391 10.1393 17.8142 9.57223 17.4171 8.88411C17.0199 8.19598 16.8175 7.41278 16.8315 6.61841M4.92412 13.4934C5.61892 13.8787 6.19578 14.4458 6.5929 15.134C6.99002 15.8221 7.19242 16.6053 7.17842 17.3997M4.42725 7.63403L19.5827 16.384M4.92412 10.5247C5.61892 10.1393 6.19578 9.57223 6.5929 8.88411C6.99002 8.19598 7.19242 7.41278 7.17842 6.61841M19.0858 13.4934C18.391 13.8787 17.8142 14.4458 17.4171 15.134C17.0199 15.8221 16.8175 16.6053 16.8315 17.3997" stroke="black" stroke-width="1.2" stroke-linecap="round" stroke-linejoin="round"/>
</svg>
