<svg width="24" height="24" viewBox="0 0 24 24" fill="none" xmlns="http://www.w3.org/2000/svg">
<path d="M7.35 15.9V15.9C7.35 15.8982 7.34854 15.8967 7.3467 15.8966C5.48483 15.8131 4 14.2169 4 12.26C4 10.2497 5.567 8.62 7.5 8.62V8.62C7.91688 8.62 8.32065 8.39141 8.50753 8.01877C9.25822 6.52192 10.7644 5.5 12.5 5.5C14.8073 5.5 16.709 7.3059 16.9696 9.63273C16.9713 9.64823 16.9844 9.66007 17 9.66V9.66C18.6569 9.66 20 11.0569 20 12.78C20 14.4495 18.7392 15.8127 17.1538 15.896C17.1517 15.8961 17.15 15.8979 17.15 15.9V15.9" stroke="black" stroke-width="1.2" stroke-linecap="round"/>
<path d="M10.3904 13.3L8.39038 18.5" stroke="black" stroke-width="1.2" stroke-linecap="round"/>
<path d="M16.3105 13.3L14.3105 18.5" stroke="black" stroke-width="1.2" stroke-linecap="round"/>
<path d="M13.0312 13.3L12.1277 14.6L11.443 15.5852C11.3508 15.7179 11.4459 15.8996 11.6076 15.8993L13.0722 15.8968C13.2378 15.8966 13.332 16.0862 13.2317 16.2179L11.4954 18.5" stroke="black" stroke-width="1.2" stroke-linecap="round"/>
</svg>
