<svg width="24" height="24" viewBox="0 0 24 24" fill="none" xmlns="http://www.w3.org/2000/svg">
<path d="M12 7.68708C15.4503 7.68708 16.3129 10.5624 16.3129 12M12 7.68708C10.5624 7.68708 7.68708 8.54967 7.68708 12M12 7.68708C18.0381 7.68708 19.5476 12.7188 19.5476 15.2347M16.3129 12C16.3129 15.4503 13.4376 16.3129 12 16.3129M16.3129 12C16.3129 18.0381 11.2812 19.5476 8.76531 19.5476M12 16.3129C8.54967 16.3129 7.68708 13.4376 7.68708 12M12 16.3129C5.96191 16.3129 4.45239 11.2812 4.45239 8.76531M7.68708 12C7.68708 5.96191 12.7188 4.45239 15.2347 4.45239M12 10.3827C13.2939 10.3827 13.6173 11.4609 13.6173 12M12 13.6173C10.7061 13.6173 10.3827 12.5391 10.3827 12" stroke="black" stroke-width="1.2" stroke-linecap="round"/>
</svg>
