<svg width="24" height="24" viewBox="0 0 24 24" fill="none" xmlns="http://www.w3.org/2000/svg">
<path d="M16.6232 9.5C17.0611 9.12184 17.6321 9 18 9C19.6 9 20 10.3333 20 11C20 12.6 18.6667 13 18 13H8" stroke="black" stroke-width="1.2" stroke-linecap="round"/>
<path d="M14.6232 19.5C15.0611 19.8782 15.6321 20 16 20C17.6 20 18 18.6667 18 18C18 16.4 16.6667 16 16 16H6" stroke="black" stroke-width="1.2" stroke-linecap="round"/>
<path d="M12.6232 4.5C13.0611 4.12184 13.6321 4 14 4C15.6 4 16 5.33333 16 6C16 7.6 14.6667 8 14 8H4" stroke="black" stroke-width="1.2" stroke-linecap="round"/>
</svg>
