<svg width="24" height="24" viewBox="0 0 24 24" fill="none" xmlns="http://www.w3.org/2000/svg">
<path d="M4.5 19.5H6.5M8.5 19.5H6.5M6.5 19.5V9M6.5 4.5H5M6.5 4.5H8M6.5 4.5V9M6.5 9H9M9 9L10.6148 6.57776C10.8464 6.23035 11.2695 6.06341 11.6759 6.15904L18.729 7.8186C19.1808 7.92488 19.5 8.32796 19.5 8.79201V9.20799C19.5 9.67204 19.1808 10.0751 18.729 10.1814L11.6759 11.841C11.2695 11.9366 10.8464 11.7696 10.6148 11.4222L9 9ZM12 8V10M14 8.5V9.5" stroke="black" stroke-width="1.2" stroke-linecap="round"/>
</svg>
