<svg width="162" height="44" viewBox="0 0 162 44" fill="none" xmlns="http://www.w3.org/2000/svg">
<path d="M34.0085 18.0786L34.0084 18.0787L22.23 24.6806C20.6633 20.1147 16.6327 17.3819 11.5017 17.3819C8.11679 17.3819 5.299 18.5683 3.32859 20.6766C1.35973 22.7833 0.256835 25.7889 0.256835 29.3939L0.256836 40.9257C0.256836 41.6848 0.506601 42.3291 0.975297 42.7832C1.44316 43.2366 2.10471 43.4769 2.88479 43.4769L35.4858 43.4769C36.256 43.4769 36.9164 43.2285 37.3857 42.7736C37.8557 42.3181 38.1138 41.675 38.1138 40.9257C38.1138 40.1764 37.8557 39.5333 37.3857 39.0778C36.9164 38.6229 36.256 38.3744 35.4858 38.3744L23.0534 38.3744L23.0534 29.9516L36.4986 22.6339C36.4989 22.6337 36.4992 22.6336 36.4995 22.6334C37.0677 22.3294 37.4787 22.0045 37.744 21.5975C38.0118 21.1866 38.1137 20.7189 38.1137 20.1633C38.1137 18.7206 37.1051 17.5609 35.7415 17.5609C35.1767 17.5609 34.6745 17.7056 34.0085 18.0786ZM18.4878 38.3744L4.84794 38.3744L4.84794 30.0075C4.84794 27.6743 5.49355 25.8364 6.65129 24.5839C7.80666 23.3341 9.49919 22.6379 11.6551 22.6379C13.8683 22.6379 15.5665 23.2931 16.7128 24.4942C17.8607 25.6969 18.4878 27.4812 18.4878 29.803L18.4878 38.3744Z" fill="black" fill-opacity="0.25" stroke="#AAAAAA" stroke-width="0.5"/>
<path d="M54.1794 43.0581L70.7768 34.3517C71.4023 34.0235 71.8396 33.5353 72.0365 32.9644C72.2339 32.3919 72.1818 31.7581 71.8673 31.1585C71.5528 30.559 71.0609 30.1558 70.4778 29.9929C69.8961 29.8303 69.2459 29.9126 68.6204 30.2407L54.2822 37.762L48.6231 26.9737L62.1461 19.88C62.7613 19.5573 63.1922 19.0716 63.3874 18.5061C63.5831 17.9391 63.535 17.3109 63.2258 16.7215C62.9112 16.1216 62.4219 15.7239 61.8439 15.5653C61.268 15.4073 60.6268 15.4926 60.0134 15.8144L46.4904 22.908L41.2232 12.867L55.5614 5.34575C56.1869 5.01763 56.6242 4.52939 56.8211 3.95848C57.0185 3.38604 56.9664 2.75223 56.6519 2.15264C56.3374 1.55305 55.8455 1.14993 55.2623 0.986952C54.6807 0.824409 54.0304 0.906659 53.4049 1.23477L36.8075 9.94118C36.1352 10.2938 35.6808 10.8143 35.4963 11.4403C35.3122 12.0652 35.4066 12.7627 35.769 13.4535L50.6993 41.916C51.0617 42.6068 51.5819 43.081 52.2007 43.2847C52.8206 43.4888 53.5071 43.4107 54.1794 43.0581Z" fill="black" fill-opacity="0.25" stroke="#AAAAAA" stroke-width="0.5"/>
<path d="M68.1091 21.8679L68.1092 21.8679C71.9913 22.6399 74.751 23.7882 76.5544 25.429C78.3691 27.0799 79.1904 29.2063 79.2424 31.8685C79.3105 35.353 77.9928 38.2265 75.5955 40.2444C73.2036 42.2577 69.7575 43.4032 65.5883 43.4847C58.5966 43.6213 53.4703 40.5681 51.9558 36.0052L51.9551 36.003L51.9551 36.003C51.7862 35.4774 51.6671 34.8925 51.656 34.3258C51.6409 33.5518 51.8456 32.8886 52.2542 32.4118C52.6657 31.9317 53.2624 31.6659 53.9765 31.652C54.596 31.6398 55.1256 31.7889 55.5537 32.1251C55.9789 32.459 56.2788 32.9576 56.4794 33.5984C57.6309 37.2339 61.1546 38.9282 65.7532 38.8383C68.2172 38.7902 70.3104 38.1013 71.7722 36.9973C73.2307 35.8958 74.0602 34.3839 74.0266 32.661C73.9976 31.1778 73.4874 29.9727 72.3753 29.0075C71.2519 28.0325 69.4959 27.2866 66.9471 26.7778L62.8397 25.9631L68.1091 21.8679ZM68.1091 21.8679L64.0013 21.0531L64.0012 21.053M68.1091 21.8679L64.0012 21.053M64.0012 21.053C61.4909 20.5563 59.7732 19.8286 58.679 18.8907C57.5964 17.9625 57.1077 16.8146 57.0805 15.4226C57.0455 13.6333 57.8593 12.1878 59.2443 11.1699C60.6359 10.1472 62.6095 9.55465 64.8731 9.51041C66.8343 9.47208 68.5509 9.84106 69.9366 10.6593C71.3188 11.4754 72.3894 12.7485 73.0467 14.5522L73.0472 14.5533M64.0012 21.053L73.0472 14.5533M73.0472 14.5533C73.2736 15.1655 73.5865 15.6534 74.0186 15.984M73.0472 14.5533L74.0186 15.984M74.0186 15.984C74.4542 16.3174 74.9883 16.4735 75.6223 16.4611M74.0186 15.984L75.6223 16.4611M75.6223 16.4611C76.2921 16.448 76.8773 16.2124 77.2926 15.7917M75.6223 16.4611L77.2926 15.7917M77.2926 15.7917C77.7086 15.3702 77.9366 14.7808 77.9232 14.0946M77.2926 15.7917L77.9232 14.0946M77.9232 14.0946C77.9134 13.593 77.8528 13.1876 77.7629 12.8815M77.9232 14.0946L77.7629 12.8815M77.7629 12.8815C76.2952 7.78189 71.1467 4.74466 64.9102 4.86656C61.0436 4.94213 57.7534 6.08664 55.4397 8.00232C53.1222 9.92107 51.7941 12.607 51.8552 15.7294C51.9075 18.406 52.7694 20.6053 54.5809 22.3183C56.3844 24.0236 59.1063 25.2254 62.8396 25.9631L77.7629 12.8815Z" fill="black" fill-opacity="0.25" stroke="#AAAAAA" stroke-width="0.5"/>
<path d="M91.3515 42.8178C95.85 43.9099 99.8122 43.3938 102.892 41.6145C105.973 39.8348 108.145 36.8056 109.088 32.9208L114.263 11.6015C114.447 10.8434 114.37 10.1438 114.04 9.5822C113.709 9.01959 113.142 8.62491 112.404 8.44582C111.666 8.26673 110.981 8.35748 110.43 8.70581C109.879 9.05352 109.489 9.63969 109.305 10.3978L104.202 31.419C103.558 34.0736 102.137 36.1325 100.135 37.3471C98.1339 38.5614 95.5244 38.9485 92.4708 38.2072C89.4171 37.4659 87.2756 35.9255 86.0539 33.9289C84.8318 31.9317 84.5131 29.4505 85.1576 26.7959L90.2605 5.77465C90.4446 5.01658 90.367 4.31701 90.0369 3.7554C89.7061 3.19279 89.139 2.7981 88.4012 2.61902C87.6635 2.43993 86.9785 2.53068 86.4266 2.879C85.8757 3.22672 85.4861 3.81289 85.302 4.57096L80.1267 25.8903C79.1836 29.7751 79.7255 33.4632 81.6472 36.4573C83.5684 39.4506 86.8531 41.7258 91.3515 42.8178Z" fill="black" fill-opacity="0.25" stroke="#AAAAAA" stroke-width="0.5"/>
<path d="M111.957 42.6134L125.935 30.829C126.475 30.3737 126.796 29.8026 126.865 29.2027C126.935 28.6011 126.747 27.9935 126.311 27.4758C125.874 26.9582 125.307 26.6706 124.702 26.6373C124.099 26.604 123.482 26.8245 122.942 27.2798L110.915 37.4197L91.2656 14.1134C90.7628 13.517 90.1526 13.1662 89.5044 13.1007C88.8551 13.0351 88.2016 13.2594 87.6212 13.7487C87.0408 14.2381 86.7093 14.8443 86.6641 15.4954C86.6191 16.1453 86.8618 16.806 87.3646 17.4024L108.313 42.2487C108.816 42.8451 109.426 43.196 110.074 43.2614C110.723 43.327 111.377 43.1027 111.957 42.6134Z" fill="black" fill-opacity="0.25" stroke="#AAAAAA" stroke-width="0.5"/>
<path d="M121.501 41.6573C121.764 42.3693 122.222 42.8869 122.819 43.1502C123.415 43.413 124.119 43.4089 124.851 43.1383L153.441 32.5613L156.761 41.5355C157.006 42.198 157.435 42.6943 157.975 42.9629C158.518 43.2322 159.153 43.2619 159.788 43.027C160.423 42.7921 160.886 42.3561 161.123 41.7986C161.358 41.2427 161.36 40.5873 161.115 39.9248L152.705 17.1908C152.46 16.5284 152.032 16.032 151.491 15.7634C150.949 15.4942 150.313 15.4644 149.678 15.6993C149.043 15.9343 148.58 16.3703 148.344 16.9277C148.108 17.4836 148.106 18.1391 148.351 18.8015L151.671 27.7758L123.08 38.3528C122.349 38.6234 121.812 39.0784 121.53 39.6659C121.248 40.2545 121.237 40.9453 121.501 41.6573Z" fill="black" fill-opacity="0.25" stroke="#AAAAAA" stroke-width="0.5"/>
</svg>
