<svg width="70" height="96" viewBox="0 0 70 96" fill="none" xmlns="http://www.w3.org/2000/svg">
<rect width="45.7143" height="45.7143" rx="6.85714" fill="black"/>
<path d="M13.4998 23.0854C8.87141 23.0854 5.10461 26.8522 5.10461 31.4807C5.10461 36.1091 8.87141 39.8759 13.4998 39.8759C18.1283 39.8759 21.8951 36.1091 21.8951 31.4807C21.8951 26.8522 18.1283 23.0854 13.4998 23.0854ZM18.9841 31.4807C18.9841 34.5051 16.5243 36.9649 13.4998 36.9649C10.4753 36.9649 8.01558 34.5051 8.01558 31.4807C8.01558 28.4562 10.4753 25.9964 13.4998 25.9964C16.5243 25.9964 18.9841 28.4562 18.9841 31.4807Z" fill="white"/>
<path d="M40.6125 15.4994C40.4437 15.1501 40.1467 14.8881 39.7771 14.76C39.6228 14.7076 39.4627 14.6785 39.3026 14.6785C38.6825 14.6785 38.1294 15.0744 37.9286 15.6595C37.2212 17.7147 35.2825 19.0945 33.1051 19.0945C30.2931 19.0945 28.0051 16.8064 28.0051 13.9944C28.0051 11.1825 30.2931 8.89443 33.1051 8.89443C35.2534 8.89443 37.1834 10.2539 37.9082 12.2741C38.1149 12.8504 38.6651 13.2405 39.2793 13.2405C39.4452 13.2405 39.6111 13.2114 39.7683 13.1561C40.5252 12.8854 40.9182 12.0499 40.6474 11.296C39.5151 8.12303 36.4818 5.98929 33.108 5.98929C28.6921 5.98929 25.097 9.58142 25.097 14.0003C25.097 18.4191 28.6892 22.0083 33.108 22.0083C36.5255 22.0083 39.5675 19.8397 40.6824 16.6114C40.8075 16.2446 40.7842 15.8487 40.6125 15.4994Z" fill="white"/>
<path opacity="0.7" d="M22.1075 10.0588C21.8542 9.8667 21.5515 9.76772 21.2342 9.76772C20.7713 9.76772 20.3463 9.98023 20.0698 10.347C18.6725 12.2042 16.8095 13.2289 14.8271 13.2289C11.791 13.2289 9.03141 10.7429 7.96018 7.04015C7.78261 6.42011 7.20623 5.98929 6.56291 5.98929C6.4261 5.98929 6.28928 6.00967 6.15829 6.04751C5.78277 6.15521 5.47421 6.40265 5.285 6.74323C5.09869 7.08381 5.05503 7.47679 5.16274 7.8494C6.59784 12.8097 10.4811 16.1398 14.8242 16.1398C17.7032 16.1398 20.4599 14.6669 22.3927 12.0965C22.876 11.4561 22.7479 10.542 22.1075 10.0588Z" fill="white"/>
<path d="M6.5601 5.98929C5.75667 5.98929 5.10461 6.64135 5.10461 7.44477V20.5529C5.10461 21.3563 5.75667 22.0083 6.5601 22.0083C7.36352 22.0083 8.01558 21.3563 8.01558 20.5529V7.44477C8.01558 6.64135 7.36352 5.98929 6.5601 5.98929Z" fill="white"/>
<path d="M21.2312 9.76486C20.4278 9.76486 19.7758 10.4169 19.7758 11.2203V20.5529C19.7758 21.3563 20.4278 22.0084 21.2312 22.0084C22.0347 22.0084 22.6867 21.3563 22.6867 20.5529V11.2203C22.6867 10.4198 22.0347 9.76486 21.2312 9.76486Z" fill="white"/>
<path d="M21.2313 5.56558C20.3726 5.56558 19.674 6.26421 19.674 7.12295C19.674 7.98169 20.3726 8.68032 21.2313 8.68032C22.0901 8.68032 22.7887 7.98169 22.7887 7.12295C22.7887 6.26421 22.0901 5.56558 21.2313 5.56558Z" fill="white"/>
<path d="M26.0111 23.9197C25.2077 23.9197 24.5557 24.5738 24.5557 25.3796V38.3141C24.5557 39.1199 25.2077 39.774 26.0111 39.774C26.8146 39.774 27.4666 39.1199 27.4666 38.3141V25.3796C27.4666 24.5738 26.8117 23.9197 26.0111 23.9197Z" fill="white"/>
<path d="M38.9329 23.7345C38.1295 23.7345 37.4774 24.3866 37.4774 25.19V38.2864C37.4774 39.0899 38.1295 39.7419 38.9329 39.7419C39.7363 39.7419 40.3884 39.0899 40.3884 38.2864V25.19C40.3884 24.3895 39.7363 23.7345 38.9329 23.7345Z" fill="white"/>
<path opacity="0.7" d="M25.9945 23.9645C25.2056 23.9645 24.5623 24.6166 24.5623 25.42C24.5623 26.2234 25.2056 26.8755 25.9945 26.8755C29.9301 26.8755 37.4808 31.7456 37.4808 38.141C37.4808 38.9444 38.1241 39.5964 38.913 39.5964C39.7019 39.5964 40.3452 38.9444 40.3452 38.141C40.3452 29.8127 31.1469 23.9645 25.9945 23.9645Z" fill="white"/>
<path d="M1.14282 56.6983C1.14282 55.6449 1.8756 54.7926 2.93195 54.7926H2.9034C3.72183 54.7926 4.28331 55.032 4.8448 55.8651C5.44434 56.7558 8.46112 61.245 9.83152 61.245C11.2019 61.245 14.3234 56.4302 14.9039 55.7406C15.4654 55.0703 15.9031 54.7926 16.674 54.7926H16.7311C17.7969 54.7926 18.6249 55.6449 18.6249 56.6983V68.9459C18.6249 69.9993 17.7969 70.842 16.7311 70.842C15.7033 70.842 14.8658 69.9801 14.8658 68.9459V61.0692C14.8658 61.0692 12.3316 65.0179 9.83152 65.0179C7.29229 65.0179 4.85431 61.1459 4.85431 61.1459V68.9938C4.85431 70.0376 4.02637 70.842 2.98905 70.842C1.95174 70.842 1.14282 70.028 1.14282 68.9938L1.14282 56.6983Z" fill="black"/>
<path d="M32.047 63.6213V63.5639C32.047 61.2942 30.4196 59.3598 28.0595 59.3598C25.6327 59.3598 24.1386 61.2559 24.1386 63.516V63.5734C24.1386 65.8335 25.766 67.768 28.1071 67.768C30.5528 67.768 32.047 65.8718 32.047 63.6213ZM20.4557 63.6213V63.5639C20.4557 59.4651 23.7199 56.1133 28.1166 56.1133C32.5038 56.1133 35.7394 59.4172 35.7394 63.516V63.5734C35.7394 67.6626 32.4752 71.0144 28.069 71.0144C23.6913 71.0144 20.4557 67.7105 20.4557 63.6213Z" fill="black"/>
<path d="M48.7816 63.6213V63.5639C48.7816 61.2942 47.1543 59.3598 44.7942 59.3598C42.3674 59.3598 40.8733 61.2559 40.8733 63.516V63.5734C40.8733 65.8335 42.5007 67.768 44.8418 67.768C47.2875 67.768 48.7816 65.8718 48.7816 63.6213ZM37.1904 63.6213V63.5639C37.1904 59.4651 40.4546 56.1133 44.8513 56.1133C49.2384 56.1133 52.4741 59.4172 52.4741 63.516V63.5734C52.4741 67.6626 49.2099 71.0144 44.8037 71.0144C40.426 71.0144 37.1904 67.7105 37.1904 63.6213Z" fill="black"/>
<path d="M54.5145 58.1148C54.5145 57.071 55.3329 56.2378 56.3702 56.2378C57.4075 56.2378 58.2355 57.071 58.2355 58.1148V58.4883C59.1586 57.2338 60.4053 56.1133 62.5084 56.1133C65.6204 56.1133 67.4285 58.1914 67.4285 61.4858V68.9746C67.4285 70.0185 66.6101 70.842 65.5728 70.842C64.5355 70.842 63.7075 70.0185 63.7075 68.9746V62.6637C63.7075 60.6239 62.7273 59.5226 61.0334 59.5226C59.3584 59.5226 58.245 60.643 58.245 62.6828V68.9746C58.245 70.0185 57.417 70.842 56.3797 70.842C55.3519 70.842 54.524 70.0185 54.524 68.9746V58.1148H54.5145Z" fill="black"/>
<path d="M1.39026 80.8809C1.39026 79.837 2.20869 79.0039 3.246 79.0039C4.28331 79.0039 5.11127 79.837 5.11127 80.8809V91.7407C5.11127 92.7845 4.28331 93.6081 3.246 93.6081C2.2182 93.6081 1.39026 92.7845 1.39026 91.7407V80.8809ZM1.14282 75.3361C1.14282 74.1007 2.05642 73.3346 3.23649 73.3346C4.41655 73.3346 5.33015 74.1007 5.33015 75.3361V75.4414C5.33015 76.6768 4.41655 77.4716 3.23649 77.4716C2.05642 77.4716 1.14282 76.6768 1.14282 75.4414V75.3361Z" fill="black"/>
<path d="M7.15967 86.3874V86.33C7.15967 82.2599 10.2716 78.8794 14.5826 78.8794C16.762 78.8794 18.2846 79.5211 19.4837 80.5553C19.7311 80.7564 20.0738 81.2065 20.0738 81.8386C20.0738 82.7867 19.3124 83.5241 18.3703 83.5241C17.8944 83.5241 17.5138 83.3325 17.2854 83.1506C16.524 82.5377 15.7151 82.1163 14.5636 82.1163C12.4129 82.1163 10.8521 84.0125 10.8521 86.2725V86.33C10.8521 88.6571 12.3938 90.5245 14.7159 90.5245C15.8674 90.5245 16.762 90.0936 17.5709 89.4232C17.7707 89.2604 18.1419 89.0593 18.5796 89.0593C19.4647 89.0593 20.1594 89.7871 20.1594 90.6777C20.1594 91.1757 19.95 91.5683 19.6265 91.8556C18.4083 92.9953 16.8857 93.771 14.5446 93.771C10.2811 93.7805 7.15967 90.467 7.15967 86.3874Z" fill="black"/>
<path d="M32.5263 86.3874V86.33C32.5263 84.0603 30.899 82.1259 28.5389 82.1259C26.1121 82.1259 24.618 84.022 24.618 86.2821V86.3396C24.618 88.5996 26.2453 90.5341 28.5864 90.5341C31.0322 90.5341 32.5263 88.6379 32.5263 86.3874ZM20.9351 86.3874V86.33C20.9351 82.2312 24.1993 78.8794 28.596 78.8794C32.9831 78.8794 36.2188 82.1833 36.2188 86.2821V86.3396C36.2188 90.4287 32.9546 93.7805 28.5484 93.7805C24.1707 93.7805 20.9351 90.4766 20.9351 86.3874Z" fill="black"/>
<path d="M38.1482 80.8809C38.1482 79.8371 38.9666 79.0039 40.0039 79.0039C41.0412 79.0039 41.8692 79.8371 41.8692 80.8809V81.2544C42.7923 79.9999 44.0295 78.8794 46.1422 78.8794C49.2541 78.8794 51.0623 80.9575 51.0623 84.2519V91.7407C51.0623 92.7846 50.2438 93.6082 49.2065 93.6082C48.1692 93.6082 47.3413 92.7846 47.3413 91.7407V85.4298C47.3413 83.39 46.3611 82.2887 44.6671 82.2887C42.9922 82.2887 41.8787 83.4091 41.8787 85.4489V91.7407C41.8787 92.7846 41.0508 93.6082 40.0135 93.6082C38.9857 93.6082 38.1577 92.7846 38.1577 91.7407V80.8809H38.1482Z" fill="black"/>
</svg>
