<svg width="24" height="24" viewBox="0 0 24 24" fill="none" xmlns="http://www.w3.org/2000/svg">
<path fill-rule="evenodd" clip-rule="evenodd" d="M12.144 19.2824C11.8845 19.1799 11.5941 19.1905 11.3427 19.3116L9.26625 20.3118C8.60231 20.6316 7.83229 20.1478 7.83229 19.4108V12.808C7.83229 12.4345 7.62118 12.0945 7.29794 11.9073C4.22388 10.1274 3.5047 7.92751 4.3085 6.1858C5.58112 3.4281 7.64154 3.60992 9.08054 4.28405C9.47881 4.47063 9.83159 4.79611 10.1389 5.26051C10.6686 6.06107 12.1452 6.2593 12.8189 5.57542C13.8475 4.53115 15.0745 4.00901 16.5 4.00901C19.9343 4.00901 20.2109 8.06033 19.7188 9.05249C19.2582 9.98121 18.821 10.5097 16.9807 11.9019C16.7311 12.0907 16.5813 12.3838 16.5784 12.6966L16.5137 19.5473C16.5071 20.2489 15.799 20.7257 15.1465 20.468L12.144 19.2824Z" stroke="black" stroke-width="1.2" stroke-linecap="round"/>
<path d="M10.75 12.6167L10.75 15.964" stroke="black" stroke-width="1.2" stroke-linecap="round"/>
</svg>
