<svg width="24" height="24" viewBox="0 0 24 24" fill="none" xmlns="http://www.w3.org/2000/svg">
<path d="M16.0955 10.3003C16.8194 9.4101 17.4991 9.219 18.1348 9.72696C19.0882 10.4889 19.362 13.1446 18.5948 15.4863C17.8275 17.8279 16.3355 21.0168 13.3237 21.0168C10.3118 21.0168 8.89961 17.426 7.67088 15.4863C6.44216 13.5465 6.46652 12.2356 7.67088 9.90506" stroke="black" stroke-width="1.2" stroke-linecap="round" stroke-linejoin="bevel"/>
<path d="M17.6138 9.45022C18.3443 8.33748 18.9162 7.47434 19.3296 6.86077C19.9497 5.94043 18.364 4.75096 17.6138 5.56014C17.1137 6.0996 16.4493 6.89414 15.6206 7.94378" stroke="black" stroke-width="1.2" stroke-linecap="round"/>
<path d="M15.8981 14.1528C16.1059 11.5518 15.9267 8.41672 15.3807 7.6305C14.5617 6.45123 13.04 6.00409 11.6071 6.00409C10.7539 6.00409 9.97485 6.36745 9.26974 7.09418" stroke="black" stroke-width="1.2" stroke-linecap="round" stroke-linejoin="bevel"/>
<path d="M5.14833 8.50319C5.10329 8.48808 5.0583 8.4734 5.01337 8.45913C4.42028 8.27088 4.02993 7.64572 4.22315 7.05423L4.37873 6.57797C4.58967 5.93225 5.26514 5.54919 5.91155 5.75801C5.97575 5.77875 6.04075 5.80021 6.10702 5.82253M5.14833 8.50319C7.06865 9.14715 9.51968 10.7935 10.8636 12.3222C11.3162 12.837 12.167 12.9703 12.6583 12.4924L13.0832 12.0791C13.4986 11.6749 13.602 11.0392 13.2471 10.581C11.8761 8.81066 9.09279 6.8285 6.10702 5.82253M5.14833 8.50319C5.47459 8.61948 6.33613 8.67201 6.7205 7.71877C7.13685 6.68621 6.56729 5.97035 6.10702 5.82253" stroke="black" stroke-width="1.2" stroke-linecap="round"/>
<path d="M12.0375 3.40738V5.66482" stroke="black" stroke-width="1.2" stroke-linecap="round"/>
<path d="M13.6217 6.31068C14.9162 4.6839 16.0144 3.77027 17.6024 3.20468" stroke="black" stroke-width="1.2" stroke-linecap="round"/>
<path d="M15.0601 4.53608L14.6352 2.79138" stroke="black" stroke-width="1.2" stroke-linecap="round"/>
</svg>
