<svg width="24" height="24" viewBox="0 0 24 24" fill="none" xmlns="http://www.w3.org/2000/svg">
<path d="M9.8574 3.5C9.8574 4.83333 8.48246 7.12048 6.98246 7.13351C2.94054 7.41186 3.0949 9.12134 3.48896 11.6993C3.88302 14.2773 3.14028 16.7856 3.4889 20.2694" stroke="black" stroke-width="1.2" stroke-linecap="round"/>
<path d="M14.1426 3.5C14.1426 4.83333 15.5175 7.12048 17.0175 7.13351C21.0595 7.41186 20.9051 9.12134 20.511 11.6993C20.117 14.2773 20.8597 16.7856 20.5111 20.2694" stroke="black" stroke-width="1.2" stroke-linecap="round"/>
<path d="M6.94006 14.5C7.40614 16.5665 7.57155 19.4175 7.40614 20.4065" stroke="black" stroke-width="1.2" stroke-linecap="round"/>
<path d="M17.0599 14.5C16.5939 16.5665 16.4284 19.4175 16.5939 20.4065" stroke="black" stroke-width="1.2" stroke-linecap="round"/>
<path d="M9.18433 15C6.37439 15 6.37439 13.7493 6.37439 11.8815" stroke="black" stroke-width="1.2" stroke-linecap="round"/>
<path d="M14.8157 15C17.6256 15 17.6256 13.7493 17.6256 11.8815" stroke="black" stroke-width="1.2" stroke-linecap="round"/>
</svg>
