<svg width="24" height="24" viewBox="0 0 24 24" fill="none" xmlns="http://www.w3.org/2000/svg">
<path d="M15.619 20.3533C16.2282 18.5413 16.2389 17.0135 16.0229 15.7699C15.9395 15.2898 15.7882 14.8739 15.569 14.5222C15.1326 13.8223 14.3395 14.4764 14.328 15.3011C14.3053 16.9293 13.5254 18.2397 12.4169 19.092C10.1274 20.8524 5.16931 19.8594 4.87035 13.9046C4.57139 7.94974 6.80234 3.03657 11.6716 3.03656C14.6647 3.03656 15.8583 5.63242 15.2481 7.70413C14.984 8.60106 15.3274 10.2621 16.149 10.7087C17.3297 11.3505 18.1402 12.2248 18.5804 13.3315C19.2907 15.1176 19.346 17.4582 18.7463 20.3533" stroke="black" stroke-width="1.2" stroke-linecap="round"/>
<path d="M8.44394 9.91808C9.77615 10.366 10.3433 10.9177 10.1453 11.573C9.94735 12.2284 9.21103 12.3878 7.93636 12.0513" stroke="black" stroke-width="1.2" stroke-linecap="round"/>
<path d="M9.05649 7.369C11.062 8.74595 12.7083 8.62621 11.3912 5.78253" stroke="black" stroke-width="1.2" stroke-linecap="round"/>
<path d="M8.35703 14.7289C9.81309 14.0888 10.7534 14.0028 11.1778 14.471C11.8146 15.1733 10.0272 16.7776 9.31944 17.083" stroke="black" stroke-width="1.2" stroke-linecap="round"/>
</svg>
