<svg width="148" height="32" viewBox="0 0 148 32" fill="none" xmlns="http://www.w3.org/2000/svg">
<path d="M102.467 11.7469C102.467 10.8117 103.2 10.0653 104.129 10.0653C105.059 10.0653 105.8 10.8117 105.8 11.7469V21.4764C105.8 22.4116 105.059 23.1494 104.129 23.1494C103.209 23.1494 102.467 22.4116 102.467 21.4764V11.7469ZM102.245 6.77925C102.245 5.67246 103.064 4.98608 104.121 4.98608C105.178 4.98608 105.997 5.67246 105.997 6.77925V6.87363C105.997 7.98042 105.178 8.69254 104.121 8.69254C103.064 8.69254 102.245 7.98042 102.245 6.87363V6.77925Z" fill="black"/>
<path d="M107.834 16.6804V16.6289C107.834 12.9825 110.622 9.95386 114.484 9.95386C116.437 9.95386 117.801 10.5287 118.875 11.4553C119.097 11.6355 119.404 12.0387 119.404 12.605C119.404 13.4544 118.722 14.115 117.878 14.115C117.451 14.115 117.11 13.9434 116.906 13.7804C116.224 13.2313 115.499 12.8538 114.467 12.8538C112.54 12.8538 111.142 14.5526 111.142 16.5774V16.6289C111.142 18.7138 112.523 20.3868 114.604 20.3868C115.635 20.3868 116.437 20.0007 117.161 19.4002C117.34 19.2543 117.673 19.0741 118.065 19.0741C118.858 19.0741 119.481 19.7262 119.481 20.5241C119.481 20.9703 119.293 21.322 119.003 21.5794C117.912 22.6004 116.548 23.2954 114.45 23.2954C110.63 23.3039 107.834 20.3354 107.834 16.6804Z" fill="black"/>
<path d="M130.56 16.6804V16.6289C130.56 14.5955 129.102 12.8624 126.988 12.8624C124.814 12.8624 123.475 14.5612 123.475 16.586V16.6375C123.475 18.6623 124.933 20.3954 127.03 20.3954C129.222 20.3954 130.56 18.6966 130.56 16.6804ZM120.175 16.6804V16.6289C120.175 12.9568 123.1 9.95386 127.039 9.95386C130.969 9.95386 133.868 12.9139 133.868 16.586V16.6375C133.868 20.301 130.944 23.3039 126.996 23.3039C123.074 23.3039 120.175 20.3439 120.175 16.6804Z" fill="black"/>
<path d="M135.597 11.747C135.597 10.8118 136.33 10.0654 137.259 10.0654C138.189 10.0654 138.931 10.8118 138.931 11.747V12.0816C139.758 10.9577 140.866 9.95386 142.759 9.95386C145.547 9.95386 147.167 11.8157 147.167 14.7671V21.4765C147.167 22.4117 146.434 23.1495 145.504 23.1495C144.575 23.1495 143.833 22.4117 143.833 21.4765V15.8224C143.833 13.9949 142.955 13.0082 141.437 13.0082C139.937 13.0082 138.939 14.0121 138.939 15.8396V21.4765C138.939 22.4117 138.197 23.1495 137.268 23.1495C136.347 23.1495 135.605 22.4117 135.605 21.4765V11.747H135.597Z" fill="black"/>
<path d="M40 10.4779C40 9.53411 40.6565 8.77051 41.6029 8.77051H41.5773C42.3106 8.77051 42.8136 8.985 43.3166 9.73144C43.8538 10.5294 46.5566 14.5 47.7843 14.5C49.0121 14.5 51.8086 10.2376 52.3287 9.6199C52.8317 9.01932 53.2239 8.77051 53.9146 8.77051H53.9657C54.9206 8.77051 55.6624 9.53411 55.6624 10.4779V21.4506C55.6624 22.3944 54.9206 23.1494 53.9657 23.1494C53.0449 23.1494 52.2946 22.3772 52.2946 21.4506L52.2946 14.5C52.2946 14.5 50.3245 17.9315 47.7843 17.9315C45 17.9315 43.3252 14.5686 43.3252 14.5686L43.3252 21.4935C43.3252 22.4287 42.5834 23.1494 41.6541 23.1494C40.7247 23.1494 40 22.4201 40 21.4935L40 10.4779Z" fill="black"/>
<path d="M67.6874 16.6803V16.6288C67.6874 14.5954 66.2294 12.8623 64.1149 12.8623C61.9408 12.8623 60.6022 14.5611 60.6022 16.5859V16.6374C60.6022 18.6622 62.0602 20.3953 64.1576 20.3953C66.3488 20.3953 67.6874 18.6965 67.6874 16.6803ZM57.3026 16.6803V16.6288C57.3026 12.9566 60.2271 9.95374 64.1661 9.95374C68.0966 9.95374 70.9955 12.9137 70.9955 16.5859V16.6374C70.9955 20.3009 68.071 23.3038 64.1235 23.3038C60.2015 23.3038 57.3026 20.3438 57.3026 16.6803Z" fill="black"/>
<path d="M82.6802 16.6803V16.6288C82.6802 14.5954 81.2223 12.8623 79.1078 12.8623C76.9337 12.8623 75.5951 14.5611 75.5951 16.5859V16.6374C75.5951 18.6622 77.053 20.3953 79.1504 20.3953C81.3416 20.3953 82.6802 18.6965 82.6802 16.6803ZM72.2955 16.6803V16.6288C72.2955 12.9566 75.2199 9.95374 79.159 9.95374C83.0895 9.95374 85.9884 12.9137 85.9884 16.5859V16.6374C85.9884 20.3009 83.0639 23.3038 79.1163 23.3038C75.1943 23.3038 72.2955 20.3438 72.2955 16.6803Z" fill="black"/>
<path d="M87.8163 11.7469C87.8163 10.8117 88.5496 10.0653 89.4789 10.0653C90.4083 10.0653 91.15 10.8117 91.15 11.7469V12.0815C91.9771 10.9576 93.094 9.95374 94.9783 9.95374C97.7663 9.95374 99.3862 11.8155 99.3862 14.767V21.4763C99.3862 22.4115 98.653 23.1494 97.7236 23.1494C96.7943 23.1494 96.0525 22.4115 96.0525 21.4763V15.8223C96.0525 13.9948 95.1743 13.0081 93.6567 13.0081C92.1561 13.0081 91.1586 14.012 91.1586 15.8394V21.4763C91.1586 22.4115 90.4168 23.1494 89.4875 23.1494C88.5666 23.1494 87.8249 22.4115 87.8249 21.4763V11.7469H87.8163Z" fill="black"/>
<rect width="32" height="32" rx="6" fill="black"/>
<path d="M9.4499 16.1598C6.21 16.1598 3.57324 18.7965 3.57324 22.0365C3.57324 25.2764 6.21 27.9131 9.4499 27.9131C12.6898 27.9131 15.3266 25.2764 15.3266 22.0365C15.3266 18.7965 12.6898 16.1598 9.4499 16.1598ZM13.2889 22.0365C13.2889 24.1536 11.5671 25.8754 9.4499 25.8754C7.33276 25.8754 5.61092 24.1536 5.61092 22.0365C5.61092 19.9193 7.33276 18.1975 9.4499 18.1975C11.5671 18.1975 13.2889 19.9193 13.2889 22.0365Z" fill="white"/>
<path d="M28.4288 10.8496C28.3106 10.6051 28.1028 10.4217 27.844 10.332C27.736 10.2953 27.6239 10.275 27.5119 10.275C27.0778 10.275 26.6907 10.5521 26.5501 10.9617C26.0549 12.4003 24.6978 13.3661 23.1736 13.3661C21.2052 13.3661 19.6036 11.7645 19.6036 9.79612C19.6036 7.82772 21.2052 6.22611 23.1736 6.22611C24.6774 6.22611 26.0284 7.1777 26.5358 8.59185C26.6805 8.99531 27.0656 9.26836 27.4956 9.26836C27.6117 9.26836 27.7279 9.24798 27.8379 9.20927C28.3677 9.01976 28.6428 8.43495 28.4533 7.90719C27.6606 5.68612 25.5373 4.1925 23.1757 4.1925C20.0845 4.1925 17.568 6.707 17.568 9.80019C17.568 12.8934 20.0825 15.4058 23.1757 15.4058C25.5679 15.4058 27.6973 13.8878 28.4777 11.628C28.5653 11.3712 28.549 11.0941 28.4288 10.8496Z" fill="white"/>
<path opacity="0.7" d="M15.4753 7.04118C15.298 6.90669 15.0861 6.83741 14.864 6.83741C14.54 6.83741 14.2425 6.98616 14.0489 7.24291C13.0709 8.54295 11.7667 9.26021 10.3791 9.26021C8.25379 9.26021 6.32207 7.52003 5.57221 4.92811C5.44791 4.49408 5.04445 4.1925 4.59412 4.1925C4.49835 4.1925 4.40258 4.20677 4.31089 4.23326C4.04803 4.30865 3.83203 4.48186 3.69958 4.72026C3.56917 4.95867 3.53861 5.23376 3.614 5.49458C4.61858 8.96678 7.33684 11.2979 10.3771 11.2979C12.3923 11.2979 14.322 10.2668 15.675 8.46755C16.0133 8.01926 15.9236 7.37943 15.4753 7.04118Z" fill="white"/>
<path d="M4.59208 4.1925C4.02968 4.1925 3.57324 4.64894 3.57324 5.21134V14.387C3.57324 14.9494 4.02968 15.4058 4.59208 15.4058C5.15448 15.4058 5.61092 14.9494 5.61092 14.387V5.21134C5.61092 4.64894 5.15448 4.1925 4.59208 4.1925Z" fill="white"/>
<path d="M14.8619 6.83545C14.2995 6.83545 13.843 7.29189 13.843 7.85429V14.3871C13.843 14.9495 14.2995 15.4059 14.8619 15.4059C15.4243 15.4059 15.8807 14.9495 15.8807 14.3871V7.85429C15.8807 7.29393 15.4243 6.83545 14.8619 6.83545Z" fill="white"/>
<path d="M14.8619 3.89587C14.2608 3.89587 13.7717 4.38492 13.7717 4.98603C13.7717 5.58715 14.2608 6.07619 14.8619 6.07619C15.463 6.07619 15.952 5.58715 15.952 4.98603C15.952 4.38492 15.463 3.89587 14.8619 3.89587Z" fill="white"/>
<path d="M18.2078 16.7438C17.6454 16.7438 17.189 17.2016 17.189 17.7657V26.8198C17.189 27.3839 17.6454 27.8417 18.2078 27.8417C18.7702 27.8417 19.2266 27.3839 19.2266 26.8198V17.7657C19.2266 17.2016 18.7682 16.7438 18.2078 16.7438Z" fill="white"/>
<path d="M27.2531 16.6141C26.6907 16.6141 26.2343 17.0706 26.2343 17.633V26.8005C26.2343 27.3629 26.6907 27.8193 27.2531 27.8193C27.8155 27.8193 28.2719 27.3629 28.2719 26.8005V17.633C28.2719 17.0726 27.8155 16.6141 27.2531 16.6141Z" fill="white"/>
<path opacity="0.7" d="M18.1962 16.7751C17.6439 16.7751 17.1936 17.2316 17.1936 17.794C17.1936 18.3564 17.6439 18.8128 18.1962 18.8128C20.9511 18.8128 26.2366 22.2219 26.2366 26.6986C26.2366 27.261 26.6869 27.7175 27.2391 27.7175C27.7913 27.7175 28.2417 27.261 28.2417 26.6986C28.2417 20.8688 21.8028 16.7751 18.1962 16.7751Z" fill="white"/>
</svg>
