<svg width="24" height="24" viewBox="0 0 24 24" fill="none" xmlns="http://www.w3.org/2000/svg">
<path d="M17.9375 3.75H6.0625C5.48285 3.75181 4.9274 4.00591 4.51753 4.45678C4.10765 4.90764 3.87665 5.51863 3.875 6.15625V14.4062C3.87665 15.0439 4.10765 15.6549 4.51753 16.1057C4.9274 16.5566 5.48285 16.8107 6.0625 16.8125H7.625V20.25L11.2859 16.8924C11.3422 16.8408 11.4131 16.8125 11.4863 16.8125H17.9375C18.5172 16.8107 19.0726 16.5566 19.4825 16.1057C19.8924 15.6549 20.1234 15.0439 20.125 14.4062V6.15625C20.1234 5.51863 19.8924 4.90764 19.4825 4.45678C19.0726 4.00591 18.5172 3.75181 17.9375 3.75Z" stroke="black" stroke-width="1.2" stroke-linejoin="round"/>
<path d="M14.9238 10.41H9" stroke="black" stroke-width="1.2" stroke-linecap="round" stroke-linejoin="round"/>
<path d="M11.1156 8.29999L9 10.4142L11.1156 12.5285" stroke="black" stroke-width="1.2" stroke-linecap="round" stroke-linejoin="round"/>
</svg>
