<svg width="24" height="24" viewBox="0 0 24 24" fill="none" xmlns="http://www.w3.org/2000/svg">
<path d="M13.3889 17.9535C16.1973 17.6714 20.5 16.0299 20.5 11C20.5 8.66667 18.9 4 12.5 4C9.83333 4 4.5 5.4 4.5 11C4.5 12.7077 5.35706 15.6654 8.32571 17.1285C8.43076 17.1803 8.50088 17.287 8.49597 17.404C8.46041 18.251 8.19523 18.943 7.92513 19.4162C7.79262 19.6483 7.95763 19.992 8.22374 19.9671C10.3126 19.7721 11.344 18.7564 11.6111 18.2222" stroke="black" stroke-width="1.2" stroke-linecap="round"/>
<path d="M13 11.6828C13.2924 11.376 13.5 10.9314 13.5 10.3C13.5 9.63338 13.1 8.30005 11.5 8.30005C10.8333 8.30005 9.5 8.70005 9.5 10.3C9.5 10.9667 9.9 12.3 11.5 12.3C11.9036 12.3 12.5515 12.1535 13 11.6828ZM13 11.6828L15.5 13.8" stroke="black" stroke-width="1.2" stroke-linecap="round"/>
</svg>
