<svg width="24" height="24" viewBox="0 0 24 24" fill="none" xmlns="http://www.w3.org/2000/svg">
<path d="M18.6579 18.5639H5.3421C4.78982 18.5639 4.3421 18.1162 4.3421 17.5639V9.2492C4.3421 8.69692 4.78982 8.2492 5.3421 8.2492H7.642C7.97297 8.2492 8.2825 8.08544 8.46871 7.81183L9.78787 5.87347C9.97408 5.59985 10.2836 5.4361 10.6146 5.4361H13.3854C13.7164 5.4361 14.0259 5.59986 14.2121 5.87347L15.5313 7.81183C15.7175 8.08544 16.027 8.2492 16.358 8.2492H18.6579C19.2102 8.2492 19.6579 8.69692 19.6579 9.2492V17.5639C19.6579 18.1162 19.2102 18.5639 18.6579 18.5639Z" stroke="black" stroke-width="1.2" stroke-linecap="round"/>
<ellipse cx="11.9934" cy="12.9948" rx="2.59672" ry="2.59822" stroke="black" stroke-width="1.2"/>
</svg>
