<svg width="24" height="24" viewBox="0 0 24 24" fill="none" xmlns="http://www.w3.org/2000/svg">
<path d="M9.8125 11.6422C10.1566 13.9321 9.52617 15.184 7.7457 15.4473C5.76718 15.7399 4.95195 14.4145 4.60781 12.1246C4.14492 9.04338 5.23281 7.12697 6.78398 7.00353C8.1957 6.89143 9.46797 9.35275 9.8125 11.6422ZM10.7363 17.9973C10.8586 19.2973 10.1559 20.5106 9.0957 20.7184C8.02539 20.9278 6.80234 20.0789 6.55312 18.7969C6.3039 17.5149 7.24648 17.4469 8.40156 17.2262C9.55664 17.0055 10.5887 16.4293 10.7363 17.9973ZM14.1875 7.89182C13.8434 10.1817 14.4738 11.4336 16.2539 11.6969C18.2328 11.9895 19.0477 10.6641 19.3918 8.37424C19.8551 5.2926 18.7668 3.36564 17.216 3.25314C15.7941 3.15002 14.532 5.60197 14.1875 7.89182ZM13.2637 14.2473C13.1414 15.5469 13.8441 16.7606 14.9043 16.9684C15.9746 17.1778 17.1977 16.3289 17.4469 15.0469C17.6961 13.7649 16.7535 13.6969 15.5984 13.4758C14.4434 13.2547 13.4113 12.6789 13.2637 14.2473Z" stroke="black" stroke-width="1.2" stroke-miterlimit="10"/>
</svg>
