<svg width="24" height="24" viewBox="0 0 24 24" fill="none" xmlns="http://www.w3.org/2000/svg">
<path d="M11.5 8.5H5M19.5 11.2184H17H14C13.4477 11.2184 13 11.6661 13 12.2184C13 13.0701 13 13.9218 13 14.7735C13 15.3258 13.4477 15.7735 14 15.7735C15.1667 15.7735 16.3333 15.7735 17.5 15.7735M14.5 19.5H5.5C4.94772 19.5 4.5 19.0523 4.5 18.5V5.5C4.5 4.94772 4.94772 4.5 5.5 4.5H18.5C19.0523 4.5 19.5 4.94772 19.5 5.5V18.5C19.5 19.0523 19.0523 19.5 18.5 19.5H14.5Z" stroke="black" stroke-width="1.2" stroke-linecap="round"/>
<path d="M16.4122 13.4575H16.4222" stroke="black" stroke-width="2" stroke-linecap="round" stroke-linejoin="round"/>
</svg>
