<svg width="24" height="24" viewBox="0 0 24 24" fill="none" xmlns="http://www.w3.org/2000/svg">
<path d="M12 18.9417C15.8338 18.9417 18.9417 15.8338 18.9417 12C18.9417 8.16623 15.8338 5.05835 12 5.05835C8.16623 5.05835 5.05835 8.16623 5.05835 12C5.05835 15.8338 8.16623 18.9417 12 18.9417Z" stroke="black" stroke-width="1.2" stroke-linecap="round" stroke-linejoin="bevel"/>
<path d="M12 20.3334V19.2917" stroke="black" stroke-width="1.2" stroke-linecap="round" stroke-linejoin="bevel"/>
<path d="M20.3333 11.5833H19.2916" stroke="black" stroke-width="1.2" stroke-linecap="round" stroke-linejoin="bevel"/>
<path d="M3.66663 11.5833H4.70829" stroke="black" stroke-width="1.2" stroke-linecap="round" stroke-linejoin="bevel"/>
<path d="M12 3.66669V4.70835" stroke="black" stroke-width="1.2" stroke-linecap="round" stroke-linejoin="bevel"/>
<path d="M7.91435 19.2916L8.43518 18.3895" stroke="black" stroke-width="1.2" stroke-linecap="round" stroke-linejoin="bevel"/>
<path d="M19.3969 15.8614L18.4948 15.3406" stroke="black" stroke-width="1.2" stroke-linecap="round" stroke-linejoin="bevel"/>
<path d="M5.02588 7.42053L5.92799 7.94137" stroke="black" stroke-width="1.2" stroke-linecap="round" stroke-linejoin="bevel"/>
<path d="M16.2205 4.81445L15.6996 5.71656" stroke="black" stroke-width="1.2" stroke-linecap="round" stroke-linejoin="bevel"/>
<path d="M4.90495 16.3026L5.31899 16.0586L5.73303 15.8146" stroke="black" stroke-width="1.2" stroke-linecap="round" stroke-linejoin="bevel"/>
<path d="M16.7439 18.9417L16.223 18.0396" stroke="black" stroke-width="1.2" stroke-linecap="round" stroke-linejoin="bevel"/>
<path d="M7.72815 4.75342L8.24898 5.65553" stroke="black" stroke-width="1.2" stroke-linecap="round" stroke-linejoin="bevel"/>
<path d="M18.9417 7.27423L18.0395 7.79506" stroke="black" stroke-width="1.2" stroke-linecap="round" stroke-linejoin="bevel"/>
<path d="M12 15.5579C13.965 15.5579 15.5579 13.965 15.5579 12C15.5579 10.0351 13.965 8.44214 12 8.44214C10.0351 8.44214 8.44214 10.0351 8.44214 12C8.44214 13.965 10.0351 15.5579 12 15.5579Z" stroke="black" stroke-width="1.2" stroke-linecap="round" stroke-linejoin="bevel"/>
<path d="M12 15.5579V16.7438" stroke="black" stroke-width="1.2" stroke-linecap="round" stroke-linejoin="bevel"/>
<path d="M15.5579 11.7628H16.7438" stroke="black" stroke-width="1.2" stroke-linecap="round" stroke-linejoin="bevel"/>
<path d="M7.2561 11.7628H8.44207" stroke="black" stroke-width="1.2" stroke-linecap="round" stroke-linejoin="bevel"/>
<path d="M12 7.2561V8.44207" stroke="black" stroke-width="1.2" stroke-linecap="round" stroke-linejoin="bevel"/>
<path d="M9.48425 14.5158L8.64565 15.3544" stroke="black" stroke-width="1.2" stroke-linecap="round" stroke-linejoin="bevel"/>
<path d="M14.6836 14.3481L15.5222 15.1867" stroke="black" stroke-width="1.2" stroke-linecap="round" stroke-linejoin="bevel"/>
<path d="M8.81335 8.47791L9.65196 9.31651" stroke="black" stroke-width="1.2" stroke-linecap="round" stroke-linejoin="bevel"/>
<path d="M15.3545 8.64557L14.5159 9.48417" stroke="black" stroke-width="1.2" stroke-linecap="round" stroke-linejoin="bevel"/>
</svg>
