<svg width="24" height="24" viewBox="0 0 24 24" fill="none" xmlns="http://www.w3.org/2000/svg">
<path d="M9.74333 4.38783C9.82872 3.8755 10.272 3.5 10.7914 3.5H13.2412C13.7606 3.5 14.2039 3.8755 14.2893 4.38783L14.4909 5.5977C14.5498 5.95097 14.7859 6.24523 15.0992 6.41867C15.1693 6.45745 15.2385 6.49751 15.3069 6.53882C15.6139 6.72418 15.9873 6.78182 16.3231 6.65601L17.4723 6.22546C17.9587 6.04324 18.5056 6.23937 18.7653 6.68917L19.9902 8.81081C20.2499 9.26062 20.1463 9.83225 19.7453 10.1624L18.7968 10.9432C18.5205 11.1707 18.3836 11.5218 18.3902 11.8796C18.3909 11.9197 18.3913 11.9598 18.3913 12C18.3913 12.0402 18.3909 12.0803 18.3902 12.1204C18.3836 12.4781 18.5205 12.8293 18.7968 13.0567L19.7453 13.8376C20.1463 14.1677 20.2499 14.7394 19.9902 15.1892L18.7653 17.3108C18.5056 17.7606 17.9587 17.9567 17.4723 17.7745L16.3231 17.344C15.9873 17.2182 15.6139 17.2758 15.3069 17.4612C15.2385 17.5025 15.1693 17.5425 15.0992 17.5813C14.7859 17.7548 14.5498 18.049 14.4909 18.4023L14.2893 19.6122C14.2039 20.1245 13.7606 20.5 13.2412 20.5H10.7914C10.272 20.5 9.82872 20.1245 9.74333 19.6122L9.54169 18.4023C9.48281 18.049 9.24672 17.7548 8.93339 17.5813C8.86333 17.5425 8.79409 17.5025 8.72568 17.4612C8.4187 17.2758 8.04533 17.2182 7.70952 17.344L6.56026 17.7745C6.07388 17.9568 5.52705 17.7606 5.26736 17.3108L4.04243 15.1892C3.78274 14.7394 3.8863 14.1678 4.28729 13.8376L5.23584 13.0568C5.5121 12.8293 5.64904 12.4782 5.64242 12.1204C5.64168 12.0803 5.6413 12.0402 5.6413 12C5.6413 11.9598 5.64168 11.9197 5.64242 11.8796C5.64904 11.5219 5.5121 11.1707 5.23584 10.9433L4.28729 10.1624C3.8863 9.83226 3.78274 9.26063 4.04243 8.81083L5.26736 6.68919C5.52706 6.23938 6.07388 6.04325 6.56026 6.22547L7.70951 6.65602C8.04532 6.78182 8.41869 6.72419 8.72567 6.53882C8.79408 6.49751 8.86333 6.45745 8.93339 6.41867C9.24672 6.24523 9.48281 5.95097 9.54169 5.5977L9.74333 4.38783Z" stroke="black" stroke-width="1.2" stroke-linecap="round" stroke-linejoin="round"/>
<path d="M14.8494 11.9999C14.8494 13.5647 13.5809 14.8333 12.0161 14.8333C10.4513 14.8333 9.18275 13.5647 9.18275 11.9999C9.18275 10.4351 10.4513 9.16659 12.0161 9.16659C13.5809 9.16659 14.8494 10.4351 14.8494 11.9999Z" stroke="black" stroke-width="1.2" stroke-linecap="round" stroke-linejoin="round"/>
</svg>
