<svg width="24" height="24" viewBox="0 0 24 24" fill="none" xmlns="http://www.w3.org/2000/svg">
<path d="M11.5 14.3312H12.1C12.1 14.0368 11.8863 13.7858 11.5956 13.7389L11.5 14.3312ZM8.32223 8.5C8.32223 6.34609 10.0683 4.6 12.2222 4.6V3.4C9.40558 3.4 7.12223 5.68335 7.12223 8.5H8.32223ZM8.32223 9.88889V8.5H7.12223V9.88889H8.32223ZM11.5956 13.7389C9.73971 13.4395 8.32223 11.8292 8.32223 9.88889H7.12223C7.12223 12.4275 8.97644 14.5319 11.4045 14.9236L11.5956 13.7389ZM12.1 18.1667V14.3312H10.9V18.1667H12.1ZM14.3333 20.4C13.0999 20.4 12.1 19.4001 12.1 18.1667H10.9C10.9 20.0628 12.4372 21.6 14.3333 21.6V20.4ZM16.5667 18.1667C16.5667 19.4001 15.5668 20.4 14.3333 20.4V21.6C16.2295 21.6 17.7667 20.0628 17.7667 18.1667H16.5667ZM16.5667 14.3889V18.1667H17.7667V14.3889H16.5667ZM16.5667 13.4444V14.3889H17.7667V13.4444H16.5667ZM16.5667 8.5V13.4444H17.7667V8.5H16.5667ZM12.6667 4.6C14.8206 4.6 16.5667 6.34609 16.5667 8.5H17.7667C17.7667 5.68335 15.4833 3.4 12.6667 3.4V4.6ZM12.2222 4.6H12.6667V3.4H12.2222V4.6Z" fill="black"/>
<path d="M14.6504 4.4597L14.3606 3.93434C14.1648 4.04235 14.0453 4.25026 14.0506 4.47379C14.0558 4.69732 14.1849 4.89939 14.3855 4.99809L14.6504 4.4597ZM17.1667 14.3889V14.9889C17.498 14.9889 17.7667 14.7202 17.7667 14.3889H17.1667ZM17.1667 14.3889V13.7889C16.8353 13.7889 16.5667 14.0575 16.5667 14.3889H17.1667ZM17.1667 15H16.5667C16.5667 15.3314 16.8353 15.6 17.1667 15.6V15ZM17.7667 8.49999C17.7667 6.48934 16.6031 4.75159 14.9152 3.92132L14.3855 4.99809C15.6788 5.63425 16.5667 6.96399 16.5667 8.49999H17.7667ZM17.7667 14.3889V8.49999H16.5667V14.3889H17.7667ZM17.1667 14.9889H17.1667V13.7889H17.1667V14.9889ZM17.7667 15V14.3889H16.5667V15H17.7667ZM17.2386 14.4H17.1667V15.6H17.2386V14.4ZM20.9 10.7385C20.9 12.7607 19.2607 14.4 17.2386 14.4V15.6C19.9235 15.6 22.1 13.4234 22.1 10.7385H20.9ZM20.9 8.19353V10.7385H22.1V8.19353H20.9ZM17.2386 4.5321C19.2607 4.5321 20.9 6.17138 20.9 8.19353H22.1C22.1 5.50864 19.9235 3.3321 17.2386 3.3321V4.5321ZM16.7059 4.5321H17.2386V3.3321H16.7059V4.5321ZM14.9402 4.98506C15.4632 4.69652 16.0645 4.5321 16.7059 4.5321V3.3321C15.8566 3.3321 15.0566 3.55037 14.3606 3.93434L14.9402 4.98506Z" fill="black"/>
<path d="M10.2193 13.9197L10.7303 14.2341C10.8186 14.0906 10.8425 13.9166 10.7962 13.7546C10.7498 13.5927 10.6375 13.4576 10.4867 13.3826L10.2193 13.9197ZM9.33614 5.04725L9.72118 5.50741C9.85652 5.39416 9.93514 5.22708 9.93613 5.05061C9.93711 4.87415 9.86037 4.7062 9.72631 4.59144L9.33614 5.04725ZM2.73637 8.36364C2.73637 6.28504 4.42141 4.6 6.5 4.6V3.4C3.75866 3.4 1.53637 5.6223 1.53637 8.36364H2.73637ZM2.73637 11.6364V8.36364H1.53637V11.6364H2.73637ZM6.5 15.4C4.42141 15.4 2.73637 13.715 2.73637 11.6364H1.53637C1.53637 14.3777 3.75866 16.6 6.5 16.6V15.4ZM9.70827 13.6053C9.04502 14.6833 7.85595 15.4 6.5 15.4V16.6C8.28987 16.6 9.85785 15.6522 10.7303 14.2341L9.70827 13.6053ZM7.12223 9.88889C7.12223 11.8909 8.27587 13.6223 9.95189 14.4568L10.4867 13.3826C9.20248 12.7432 8.32223 11.4183 8.32223 9.88889H7.12223ZM7.12223 8.5V9.88889H8.32223V8.5H7.12223ZM8.95109 4.5871C7.8342 5.52169 7.12223 6.92798 7.12223 8.5H8.32223C8.32223 7.2982 8.8651 6.22376 9.72118 5.50741L8.95109 4.5871ZM6.5 4.6C7.43434 4.6 8.28781 4.93969 8.94596 5.50307L9.72631 4.59144C8.85897 3.84901 7.73116 3.4 6.5 3.4V4.6Z" fill="black"/>
<path d="M8 8.19427C10.5 7 12 8.08072 12 10.0404C12 12 11.5 12.5 10.5 13.5" stroke="black" stroke-width="1.2" stroke-linecap="round" stroke-linejoin="round"/>
</svg>
