<svg width="24" height="24" viewBox="0 0 24 24" fill="none" xmlns="http://www.w3.org/2000/svg">
<path d="M5 19.5V4.5C5 3.94772 5.44772 3.5 6 3.5H14.5858C14.851 3.5 15.1054 3.60536 15.2929 3.79289L18.7071 7.20711C18.8946 7.39464 19 7.649 19 7.91421V19.5C19 20.0523 18.5523 20.5 18 20.5H6C5.44772 20.5 5 20.0523 5 19.5Z" stroke="black" stroke-width="1.2"/>
<path d="M8.5 9H9.5M15.5 9H14.5M14.5 9V16H9.5V9M14.5 9H12.5M9.5 9H11.5M12 11V14M11.5 9V8H12.5V9M11.5 9H12.5" stroke="black" stroke-width="1.2" stroke-linecap="round" stroke-linejoin="round"/>
</svg>
