<svg width="24" height="24" viewBox="0 0 24 24" fill="none" xmlns="http://www.w3.org/2000/svg">
<path d="M5 19.5V4.5C5 3.94772 5.44772 3.5 6 3.5H14.5858C14.851 3.5 15.1054 3.60536 15.2929 3.79289L18.7071 7.20711C18.8946 7.39464 19 7.649 19 7.91421V19.5C19 20.0523 18.5523 20.5 18 20.5H6C5.44772 20.5 5 20.0523 5 19.5Z" stroke="black" stroke-width="1.2"/>
<path d="M10 11H8.5V15H15.5V11H14M10 11H14M10 11C10 9.4 11.3333 9 12 9C13.6 9 14 10.3333 14 11" stroke="black" stroke-width="1.2" stroke-linecap="round" stroke-linejoin="round"/>
</svg>
