<svg width="24" height="24" viewBox="0 0 24 24" fill="none" xmlns="http://www.w3.org/2000/svg">
<path d="M19 20.5H6C5.44772 20.5 5 20.0523 5 19.5V4.5C5 3.94772 5.44772 3.5 6 3.5H14.5858C14.851 3.5 15.1054 3.60536 15.2929 3.79289L18.7071 7.20711C18.8946 7.39464 19 7.649 19 7.91421V11V12.5" stroke="black" stroke-width="1.2" stroke-linecap="round"/>
<path d="M8.6001 14.6001H10.924L8.6001 18.6001H10.924" stroke="black" stroke-width="1.2" stroke-linecap="round" stroke-linejoin="round"/>
<path d="M13.6353 14.6001V18.6001" stroke="black" stroke-width="1.2" stroke-linecap="round"/>
<path d="M16.3464 14.6001V18.6001" stroke="black" stroke-width="1.2" stroke-linecap="round"/>
<path d="M16.3464 14.6001H17.7021C18.2368 14.6001 18.6704 15.1597 18.6704 15.8501C18.6704 16.5404 18.2368 17.1001 17.7021 17.1001H16.3464" stroke="black" stroke-width="1.2" stroke-linecap="round" stroke-linejoin="round"/>
</svg>
